<?xml version="1.0" encoding="UTF-8"?>
<svg xmlns="http://www.w3.org/2000/svg" xmlns:xlink="http://www.w3.org/1999/xlink" width="24px" height="24px" viewBox="0 0 24 24" version="1.1">
<g id="surface1">
<path style=" stroke:none;fill-rule:nonzero;fill:rgb(15.686275%,16.862746%,21.176471%);fill-opacity:1;" d="M 4.386719 -0.0078125 C 4.46875 -0.0078125 4.554688 -0.0078125 4.636719 -0.0078125 C 4.785156 -0.0078125 4.929688 -0.0078125 5.078125 -0.0078125 C 5.296875 -0.0078125 5.515625 -0.0078125 5.734375 -0.0078125 C 6.148438 -0.0078125 6.5625 -0.0078125 6.972656 -0.0078125 C 7.292969 -0.0078125 7.613281 -0.0078125 7.933594 -0.0078125 C 8.023438 -0.0078125 8.117188 -0.0078125 8.207031 -0.0078125 C 8.230469 -0.0078125 8.253906 -0.0078125 8.277344 -0.0078125 C 8.921875 -0.0078125 9.5625 -0.0078125 10.207031 -0.0078125 C 10.230469 -0.0078125 10.253906 -0.0078125 10.28125 -0.0078125 C 10.402344 -0.0078125 10.527344 -0.0078125 10.648438 -0.0078125 C 10.683594 -0.0078125 10.683594 -0.0078125 10.722656 -0.0078125 C 10.773438 -0.0078125 10.820312 -0.0078125 10.871094 -0.0078125 C 11.636719 -0.0078125 12.40625 -0.0078125 13.171875 -0.0078125 C 14.035156 -0.0117188 14.898438 -0.0117188 15.761719 -0.0117188 C 15.851562 -0.0117188 15.945312 -0.0117188 16.035156 -0.0117188 C 16.070312 -0.0117188 16.070312 -0.0117188 16.105469 -0.0117188 C 16.46875 -0.0117188 16.832031 -0.0117188 17.199219 -0.0117188 C 17.5625 -0.0117188 17.929688 -0.0117188 18.296875 -0.0117188 C 18.511719 -0.0117188 18.730469 -0.0117188 18.949219 -0.0117188 C 19.09375 -0.0117188 19.238281 -0.0117188 19.382812 -0.0117188 C 19.46875 -0.0117188 19.550781 -0.0117188 19.632812 -0.0117188 C 20.875 -0.015625 21.9375 0.398438 22.832031 1.261719 C 23.414062 1.859375 23.796875 2.628906 23.953125 3.445312 C 23.957031 3.464844 23.960938 3.484375 23.964844 3.503906 C 24.015625 3.796875 24.007812 4.089844 24.007812 4.386719 C 24.007812 4.46875 24.007812 4.554688 24.007812 4.636719 C 24.007812 4.785156 24.007812 4.929688 24.007812 5.078125 C 24.007812 5.296875 24.007812 5.515625 24.007812 5.734375 C 24.007812 6.148438 24.007812 6.5625 24.007812 6.972656 C 24.007812 7.292969 24.007812 7.613281 24.007812 7.933594 C 24.007812 8.023438 24.007812 8.117188 24.007812 8.207031 C 24.007812 8.230469 24.007812 8.253906 24.007812 8.277344 C 24.007812 8.921875 24.007812 9.5625 24.007812 10.207031 C 24.007812 10.230469 24.007812 10.253906 24.007812 10.28125 C 24.007812 10.402344 24.007812 10.527344 24.007812 10.648438 C 24.007812 10.683594 24.007812 10.683594 24.007812 10.722656 C 24.007812 10.773438 24.007812 10.820312 24.007812 10.871094 C 24.007812 11.636719 24.007812 12.40625 24.007812 13.171875 C 24.011719 14.035156 24.011719 14.898438 24.011719 15.761719 C 24.011719 15.851562 24.011719 15.945312 24.011719 16.035156 C 24.011719 16.070312 24.011719 16.070312 24.011719 16.105469 C 24.011719 16.46875 24.011719 16.832031 24.011719 17.199219 C 24.011719 17.5625 24.011719 17.929688 24.011719 18.296875 C 24.011719 18.511719 24.011719 18.730469 24.011719 18.949219 C 24.011719 19.09375 24.011719 19.238281 24.011719 19.382812 C 24.011719 19.46875 24.011719 19.550781 24.011719 19.632812 C 24.015625 20.875 23.601562 21.9375 22.738281 22.832031 C 22.140625 23.414062 21.371094 23.796875 20.554688 23.953125 C 20.535156 23.957031 20.515625 23.960938 20.496094 23.964844 C 20.203125 24.015625 19.910156 24.007812 19.613281 24.007812 C 19.53125 24.007812 19.445312 24.007812 19.363281 24.007812 C 19.214844 24.007812 19.070312 24.007812 18.921875 24.007812 C 18.703125 24.007812 18.484375 24.007812 18.265625 24.007812 C 17.851562 24.007812 17.4375 24.007812 17.027344 24.007812 C 16.707031 24.007812 16.386719 24.007812 16.066406 24.007812 C 15.976562 24.007812 15.882812 24.007812 15.792969 24.007812 C 15.769531 24.007812 15.746094 24.007812 15.722656 24.007812 C 15.078125 24.007812 14.4375 24.007812 13.792969 24.007812 C 13.769531 24.007812 13.746094 24.007812 13.71875 24.007812 C 13.597656 24.007812 13.472656 24.007812 13.351562 24.007812 C 13.316406 24.007812 13.316406 24.007812 13.277344 24.007812 C 13.226562 24.007812 13.179688 24.007812 13.128906 24.007812 C 12.363281 24.007812 11.59375 24.007812 10.828125 24.007812 C 9.964844 24.011719 9.101562 24.011719 8.238281 24.011719 C 8.148438 24.011719 8.054688 24.011719 7.964844 24.011719 C 7.929688 24.011719 7.929688 24.011719 7.894531 24.011719 C 7.53125 24.011719 7.167969 24.011719 6.800781 24.011719 C 6.4375 24.011719 6.070312 24.011719 5.703125 24.011719 C 5.488281 24.011719 5.269531 24.011719 5.050781 24.011719 C 4.90625 24.011719 4.761719 24.011719 4.617188 24.011719 C 4.53125 24.011719 4.449219 24.011719 4.367188 24.011719 C 3.125 24.015625 2.0625 23.601562 1.167969 22.738281 C 0.585938 22.140625 0.203125 21.371094 0.046875 20.554688 C 0.0429688 20.535156 0.0390625 20.515625 0.0351562 20.496094 C -0.015625 20.203125 -0.0078125 19.910156 -0.0078125 19.613281 C -0.0078125 19.53125 -0.0078125 19.445312 -0.0078125 19.363281 C -0.0078125 19.214844 -0.0078125 19.070312 -0.0078125 18.921875 C -0.0078125 18.703125 -0.0078125 18.484375 -0.0078125 18.265625 C -0.0078125 17.851562 -0.0078125 17.4375 -0.0078125 17.027344 C -0.0078125 16.707031 -0.0078125 16.386719 -0.0078125 16.066406 C -0.0078125 15.976562 -0.0078125 15.882812 -0.0078125 15.792969 C -0.0078125 15.769531 -0.0078125 15.746094 -0.0078125 15.722656 C -0.0078125 15.078125 -0.0078125 14.4375 -0.0078125 13.792969 C -0.0078125 13.769531 -0.0078125 13.746094 -0.0078125 13.71875 C -0.0078125 13.597656 -0.0078125 13.472656 -0.0078125 13.351562 C -0.0078125 13.328125 -0.0078125 13.300781 -0.0078125 13.277344 C -0.0078125 13.226562 -0.0078125 13.179688 -0.0078125 13.128906 C -0.0078125 12.363281 -0.0078125 11.59375 -0.0078125 10.828125 C -0.0117188 9.964844 -0.0117188 9.101562 -0.0117188 8.238281 C -0.0117188 8.148438 -0.0117188 8.054688 -0.0117188 7.964844 C -0.0117188 7.941406 -0.0117188 7.917969 -0.0117188 7.894531 C -0.0117188 7.53125 -0.0117188 7.167969 -0.0117188 6.800781 C -0.0117188 6.4375 -0.0117188 6.070312 -0.0117188 5.703125 C -0.0117188 5.488281 -0.0117188 5.269531 -0.0117188 5.050781 C -0.0117188 4.90625 -0.0117188 4.761719 -0.0117188 4.617188 C -0.0117188 4.53125 -0.0117188 4.449219 -0.0117188 4.367188 C -0.015625 3.125 0.398438 2.0625 1.261719 1.167969 C 1.859375 0.585938 2.628906 0.203125 3.445312 0.046875 C 3.464844 0.0429688 3.484375 0.0390625 3.503906 0.0351562 C 3.796875 -0.015625 4.089844 -0.0078125 4.386719 -0.0078125 Z M 4.386719 -0.0078125 "/>
<path style=" stroke:none;fill-rule:nonzero;fill:rgb(99.607843%,99.607843%,99.607843%);fill-opacity:1;" d="M 16.539062 2.582031 C 16.566406 2.589844 16.589844 2.59375 16.617188 2.601562 C 16.640625 2.605469 16.664062 2.613281 16.6875 2.617188 C 16.714844 2.625 16.738281 2.632812 16.765625 2.640625 C 16.796875 2.648438 16.828125 2.65625 16.855469 2.664062 C 16.875 2.667969 16.890625 2.675781 16.910156 2.679688 C 16.976562 2.699219 17.046875 2.714844 17.113281 2.734375 C 17.566406 2.855469 17.566406 2.855469 17.785156 2.921875 C 17.953125 2.972656 18.121094 3.011719 18.292969 3.050781 C 18.429688 3.082031 18.5625 3.121094 18.695312 3.164062 C 18.792969 3.195312 18.894531 3.21875 18.996094 3.242188 C 19.160156 3.285156 19.324219 3.328125 19.488281 3.375 C 19.648438 3.421875 19.808594 3.464844 19.96875 3.503906 C 20.152344 3.546875 20.332031 3.597656 20.511719 3.652344 C 20.675781 3.699219 20.839844 3.742188 21.007812 3.78125 C 21.117188 3.808594 21.222656 3.835938 21.328125 3.867188 C 21.328125 3.882812 21.328125 3.898438 21.328125 3.914062 C 21.292969 3.941406 21.292969 3.941406 21.246094 3.972656 C 21.21875 3.992188 21.21875 3.992188 21.191406 4.011719 C 21.171875 4.023438 21.152344 4.035156 21.132812 4.050781 C 21.089844 4.078125 21.050781 4.105469 21.007812 4.132812 C 20.988281 4.148438 20.964844 4.160156 20.945312 4.175781 C 20.851562 4.238281 20.761719 4.304688 20.671875 4.371094 C 20.503906 4.492188 20.332031 4.613281 20.160156 4.734375 C 20.035156 4.820312 19.910156 4.910156 19.785156 5 C 19.679688 5.074219 19.574219 5.148438 19.46875 5.222656 C 19.332031 5.320312 19.195312 5.417969 19.058594 5.515625 C 18.851562 5.667969 18.640625 5.8125 18.429688 5.960938 C 18.207031 6.117188 17.988281 6.273438 17.769531 6.433594 C 17.625 6.539062 17.476562 6.640625 17.328125 6.738281 C 17.171875 6.84375 17.019531 6.957031 16.871094 7.070312 C 16.75 7.160156 16.628906 7.246094 16.503906 7.332031 C 16.382812 7.414062 16.265625 7.496094 16.148438 7.582031 C 16.015625 7.675781 15.882812 7.773438 15.75 7.863281 C 15.597656 7.96875 15.449219 8.074219 15.300781 8.183594 C 15.132812 8.304688 14.960938 8.421875 14.792969 8.542969 C 14.707031 8.601562 14.625 8.660156 14.542969 8.71875 C 14.445312 8.789062 14.34375 8.859375 14.246094 8.929688 C 14.078125 9.046875 13.910156 9.167969 13.742188 9.289062 C 13.558594 9.421875 13.371094 9.550781 13.183594 9.679688 C 13.027344 9.789062 12.871094 9.902344 12.714844 10.015625 C 12.546875 10.136719 12.382812 10.253906 12.214844 10.371094 C 12.160156 10.40625 12.109375 10.445312 12.054688 10.484375 C 12.039062 10.496094 12.019531 10.507812 12 10.519531 C 11.96875 10.546875 11.933594 10.570312 11.898438 10.59375 C 11.808594 10.65625 11.71875 10.71875 11.625 10.78125 C 11.867188 10.847656 12.105469 10.914062 12.347656 10.980469 C 12.527344 11.027344 12.710938 11.078125 12.890625 11.128906 C 13.128906 11.199219 13.367188 11.261719 13.605469 11.320312 C 13.847656 11.382812 14.089844 11.445312 14.328125 11.515625 C 14.582031 11.585938 14.832031 11.652344 15.085938 11.714844 C 15.265625 11.757812 15.4375 11.808594 15.613281 11.863281 C 15.699219 11.890625 15.785156 11.910156 15.871094 11.929688 C 16.027344 11.964844 16.179688 12.003906 16.335938 12.050781 C 16.472656 12.09375 16.617188 12.128906 16.757812 12.164062 C 16.757812 12.179688 16.757812 12.195312 16.757812 12.210938 C 16.722656 12.238281 16.722656 12.238281 16.671875 12.265625 C 16.652344 12.277344 16.632812 12.289062 16.613281 12.300781 C 16.59375 12.3125 16.574219 12.324219 16.550781 12.335938 C 16.386719 12.433594 16.222656 12.535156 16.058594 12.640625 C 15.890625 12.753906 15.71875 12.863281 15.542969 12.96875 C 15.355469 13.085938 15.171875 13.203125 14.988281 13.324219 C 14.78125 13.460938 14.574219 13.589844 14.367188 13.722656 C 14.183594 13.832031 14.003906 13.945312 13.828125 14.0625 C 13.691406 14.148438 13.554688 14.234375 13.417969 14.320312 C 13.191406 14.460938 12.96875 14.605469 12.746094 14.746094 C 12.636719 14.816406 12.53125 14.882812 12.421875 14.953125 C 12.378906 14.980469 12.335938 15.007812 12.292969 15.035156 C 12.207031 15.089844 12.121094 15.144531 12.035156 15.199219 C 12.003906 15.21875 12.003906 15.21875 11.96875 15.242188 C 11.929688 15.265625 11.886719 15.292969 11.84375 15.320312 C 11.734375 15.390625 11.625 15.460938 11.515625 15.527344 C 11.203125 15.730469 10.890625 15.925781 10.574219 16.125 C 10.398438 16.234375 10.222656 16.347656 10.050781 16.460938 C 9.890625 16.5625 9.730469 16.664062 9.570312 16.765625 C 9.214844 16.984375 8.863281 17.210938 8.515625 17.4375 C 8.335938 17.550781 8.15625 17.664062 7.976562 17.777344 C 7.660156 17.976562 7.34375 18.179688 7.027344 18.378906 C 6.898438 18.460938 6.769531 18.542969 6.640625 18.625 C 6.53125 18.695312 6.421875 18.765625 6.3125 18.832031 C 6.09375 18.972656 5.875 19.113281 5.652344 19.253906 C 5.488281 19.355469 5.324219 19.460938 5.160156 19.566406 C 5.019531 19.65625 4.875 19.746094 4.734375 19.835938 C 4.507812 19.980469 4.277344 20.125 4.054688 20.273438 C 4.039062 20.265625 4.023438 20.257812 4.007812 20.25 C 4.03125 20.226562 4.054688 20.203125 4.078125 20.179688 C 4.097656 20.160156 4.097656 20.160156 4.117188 20.136719 C 4.164062 20.09375 4.210938 20.050781 4.257812 20.011719 C 4.359375 19.921875 4.453125 19.828125 4.546875 19.734375 C 4.652344 19.625 4.761719 19.523438 4.875 19.421875 C 4.949219 19.359375 5.019531 19.289062 5.085938 19.21875 C 5.253906 19.046875 5.253906 19.046875 5.34375 18.972656 C 5.4375 18.894531 5.523438 18.804688 5.613281 18.714844 C 5.714844 18.613281 5.816406 18.511719 5.925781 18.421875 C 6.015625 18.339844 6.097656 18.253906 6.183594 18.167969 C 6.265625 18.082031 6.351562 18.003906 6.441406 17.929688 C 6.515625 17.863281 6.585938 17.789062 6.65625 17.71875 C 6.828125 17.546875 6.828125 17.546875 6.914062 17.472656 C 7.007812 17.394531 7.09375 17.304688 7.183594 17.214844 C 7.285156 17.113281 7.386719 17.011719 7.496094 16.921875 C 7.570312 16.851562 7.640625 16.78125 7.710938 16.710938 C 7.882812 16.539062 7.882812 16.539062 7.96875 16.464844 C 8.0625 16.386719 8.148438 16.296875 8.238281 16.207031 C 8.339844 16.105469 8.441406 16.007812 8.550781 15.914062 C 8.628906 15.84375 8.703125 15.765625 8.777344 15.691406 C 8.878906 15.589844 8.980469 15.492188 9.089844 15.398438 C 9.167969 15.328125 9.242188 15.25 9.316406 15.175781 C 9.417969 15.074219 9.519531 14.976562 9.628906 14.882812 C 9.707031 14.8125 9.78125 14.734375 9.855469 14.660156 C 10.039062 14.472656 10.039062 14.472656 10.125 14.402344 C 10.1875 14.347656 10.25 14.292969 10.304688 14.234375 C 10.332031 14.207031 10.332031 14.207031 10.355469 14.183594 C 10.386719 14.152344 10.417969 14.117188 10.449219 14.085938 C 10.464844 14.070312 10.480469 14.054688 10.496094 14.039062 C 10.515625 14.019531 10.515625 14.019531 10.535156 14 C 10.570312 13.96875 10.570312 13.96875 10.617188 13.96875 C 10.617188 13.953125 10.617188 13.9375 10.617188 13.921875 C 10.648438 13.890625 10.648438 13.890625 10.691406 13.855469 C 10.785156 13.777344 10.871094 13.691406 10.957031 13.605469 C 11.035156 13.527344 11.113281 13.445312 11.199219 13.375 C 11.34375 13.25 11.476562 13.109375 11.609375 12.976562 C 11.65625 12.929688 11.699219 12.886719 11.742188 12.84375 C 11.714844 12.835938 11.691406 12.832031 11.664062 12.824219 C 11.628906 12.816406 11.589844 12.808594 11.554688 12.800781 C 11.539062 12.796875 11.523438 12.792969 11.503906 12.789062 C 11.414062 12.769531 11.328125 12.746094 11.238281 12.714844 C 11.128906 12.675781 11.015625 12.648438 10.898438 12.625 C 10.742188 12.589844 10.589844 12.550781 10.441406 12.503906 C 10.296875 12.460938 10.15625 12.421875 10.011719 12.386719 C 9.789062 12.332031 9.5625 12.269531 9.339844 12.203125 C 9.058594 12.125 8.777344 12.046875 8.496094 11.980469 C 8.152344 11.894531 7.8125 11.796875 7.476562 11.695312 C 7.585938 11.5625 7.703125 11.441406 7.828125 11.320312 C 7.863281 11.285156 7.894531 11.25 7.929688 11.214844 C 8.003906 11.144531 8.078125 11.070312 8.152344 10.996094 C 8.238281 10.910156 8.324219 10.824219 8.410156 10.742188 C 8.445312 10.707031 8.476562 10.671875 8.511719 10.636719 C 8.53125 10.617188 8.554688 10.597656 8.574219 10.574219 C 8.59375 10.558594 8.609375 10.539062 8.628906 10.519531 C 8.671875 10.480469 8.671875 10.480469 8.695312 10.429688 C 8.710938 10.429688 8.726562 10.429688 8.742188 10.429688 C 8.742188 10.414062 8.742188 10.398438 8.742188 10.382812 C 8.757812 10.382812 8.773438 10.382812 8.789062 10.382812 C 8.796875 10.363281 8.796875 10.363281 8.804688 10.34375 C 8.847656 10.265625 8.910156 10.207031 8.972656 10.144531 C 8.988281 10.132812 9.003906 10.117188 9.015625 10.101562 C 9.0625 10.054688 9.109375 10.011719 9.15625 9.964844 C 9.191406 9.929688 9.222656 9.898438 9.253906 9.867188 C 9.339844 9.78125 9.429688 9.695312 9.515625 9.609375 C 9.652344 9.472656 9.789062 9.335938 9.925781 9.199219 C 9.972656 9.152344 10.023438 9.105469 10.070312 9.054688 C 10.195312 8.933594 10.316406 8.808594 10.429688 8.675781 C 10.539062 8.558594 10.652344 8.445312 10.765625 8.332031 C 10.816406 8.285156 10.863281 8.234375 10.914062 8.1875 C 11.015625 8.085938 11.121094 7.980469 11.222656 7.878906 C 11.34375 7.757812 11.464844 7.636719 11.585938 7.519531 C 11.632812 7.46875 11.679688 7.421875 11.730469 7.375 C 11.757812 7.34375 11.789062 7.316406 11.816406 7.285156 C 11.832031 7.273438 11.84375 7.257812 11.859375 7.246094 C 11.925781 7.179688 11.925781 7.179688 11.976562 7.101562 C 11.992188 7.101562 12.007812 7.101562 12.023438 7.101562 C 12.023438 7.085938 12.023438 7.070312 12.023438 7.054688 C 12.039062 7.054688 12.054688 7.054688 12.070312 7.054688 C 12.078125 7.039062 12.082031 7.027344 12.089844 7.011719 C 12.117188 6.960938 12.140625 6.929688 12.179688 6.890625 C 12.195312 6.878906 12.207031 6.863281 12.222656 6.851562 C 12.234375 6.835938 12.25 6.824219 12.265625 6.808594 C 12.277344 6.792969 12.292969 6.777344 12.308594 6.761719 C 12.359375 6.714844 12.410156 6.664062 12.460938 6.613281 C 12.496094 6.582031 12.527344 6.546875 12.5625 6.511719 C 12.65625 6.417969 12.746094 6.328125 12.839844 6.238281 C 12.984375 6.09375 13.132812 5.945312 13.277344 5.800781 C 13.328125 5.75 13.378906 5.699219 13.429688 5.648438 C 13.460938 5.617188 13.492188 5.585938 13.527344 5.554688 C 13.539062 5.539062 13.554688 5.527344 13.566406 5.511719 C 13.652344 5.425781 13.734375 5.339844 13.8125 5.246094 C 13.867188 5.1875 13.921875 5.128906 13.980469 5.070312 C 14 5.054688 14 5.054688 14.019531 5.035156 C 14.042969 5.007812 14.070312 4.984375 14.09375 4.960938 C 14.132812 4.917969 14.175781 4.878906 14.214844 4.839844 C 14.300781 4.753906 14.382812 4.667969 14.46875 4.585938 C 14.570312 4.484375 14.667969 4.386719 14.765625 4.289062 C 14.808594 4.25 14.847656 4.210938 14.886719 4.171875 C 14.910156 4.148438 14.933594 4.121094 14.957031 4.097656 C 14.980469 4.078125 15 4.054688 15.023438 4.035156 C 15.070312 3.988281 15.070312 3.988281 15.09375 3.9375 C 15.109375 3.9375 15.125 3.9375 15.140625 3.9375 C 15.140625 3.921875 15.140625 3.90625 15.140625 3.890625 C 15.15625 3.890625 15.171875 3.890625 15.1875 3.890625 C 15.191406 3.878906 15.199219 3.863281 15.203125 3.851562 C 15.242188 3.78125 15.292969 3.730469 15.347656 3.675781 C 15.359375 3.660156 15.371094 3.648438 15.382812 3.636719 C 15.421875 3.597656 15.460938 3.558594 15.5 3.519531 C 15.519531 3.5 15.519531 3.5 15.539062 3.480469 C 15.609375 3.410156 15.679688 3.339844 15.75 3.269531 C 15.820312 3.195312 15.894531 3.121094 15.964844 3.046875 C 16.019531 2.992188 16.078125 2.933594 16.132812 2.878906 C 16.160156 2.851562 16.183594 2.824219 16.210938 2.796875 C 16.25 2.761719 16.285156 2.722656 16.324219 2.6875 C 16.34375 2.664062 16.367188 2.644531 16.386719 2.621094 C 16.453125 2.578125 16.453125 2.578125 16.539062 2.582031 Z M 16.539062 2.582031 "/>
<path style=" stroke:none;fill-rule:nonzero;fill:rgb(65.098041%,98.431373%,20.392157%);fill-opacity:1;" d="M 19.03125 6.726562 C 19.066406 6.765625 19.066406 6.765625 19.101562 6.816406 C 19.113281 6.835938 19.128906 6.851562 19.140625 6.871094 C 19.15625 6.894531 19.167969 6.914062 19.183594 6.933594 C 19.199219 6.957031 19.210938 6.976562 19.226562 7 C 19.359375 7.1875 19.476562 7.386719 19.585938 7.585938 C 19.617188 7.636719 19.644531 7.6875 19.675781 7.738281 C 20.144531 8.546875 20.460938 9.46875 20.613281 10.390625 C 20.621094 10.433594 20.628906 10.476562 20.636719 10.523438 C 20.722656 10.980469 20.726562 11.4375 20.726562 11.902344 C 20.726562 11.9375 20.726562 11.96875 20.726562 12 C 20.730469 12.691406 20.730469 12.691406 20.671875 13.03125 C 20.664062 13.078125 20.660156 13.125 20.652344 13.175781 C 20.578125 13.652344 20.484375 14.125 20.320312 14.578125 C 20.308594 14.617188 20.292969 14.652344 20.28125 14.691406 C 20.277344 14.707031 20.269531 14.722656 20.265625 14.738281 C 20.253906 14.773438 20.246094 14.808594 20.234375 14.84375 C 20.195312 14.984375 20.140625 15.113281 20.078125 15.246094 C 20.046875 15.316406 20.015625 15.382812 19.984375 15.453125 C 19.757812 16 19.460938 16.523438 19.109375 16.996094 C 19.074219 17.042969 19.042969 17.089844 19.007812 17.132812 C 18.871094 17.324219 18.722656 17.5 18.5625 17.671875 C 18.53125 17.703125 18.503906 17.738281 18.476562 17.773438 C 18.460938 17.785156 18.449219 17.800781 18.4375 17.816406 C 18.410156 17.847656 18.382812 17.875 18.359375 17.90625 C 18.347656 17.921875 18.332031 17.9375 18.320312 17.953125 C 18.308594 17.964844 18.296875 17.980469 18.289062 17.992188 C 18.257812 18.023438 18.257812 18.023438 18.210938 18.023438 C 18.210938 18.039062 18.210938 18.054688 18.210938 18.070312 C 18.175781 18.105469 18.175781 18.105469 18.128906 18.144531 C 18.0625 18.203125 17.996094 18.261719 17.933594 18.324219 C 17.84375 18.417969 17.746094 18.5 17.644531 18.578125 C 17.601562 18.613281 17.558594 18.648438 17.519531 18.683594 C 17.082031 19.046875 16.601562 19.34375 16.101562 19.617188 C 16.082031 19.628906 16.066406 19.636719 16.046875 19.648438 C 15.992188 19.675781 15.933594 19.707031 15.878906 19.738281 C 15.859375 19.746094 15.84375 19.757812 15.828125 19.765625 C 15.660156 19.855469 15.480469 19.925781 15.304688 19.992188 C 15.289062 19.996094 15.273438 20.003906 15.257812 20.011719 C 14.835938 20.171875 14.414062 20.320312 13.96875 20.414062 C 13.925781 20.421875 13.925781 20.421875 13.886719 20.433594 C 12.773438 20.671875 11.644531 20.703125 10.523438 20.507812 C 10.476562 20.5 10.425781 20.492188 10.378906 20.484375 C 10.117188 20.441406 9.867188 20.371094 9.617188 20.289062 C 9.566406 20.273438 9.515625 20.257812 9.460938 20.246094 C 8.714844 20.035156 7.980469 19.699219 7.335938 19.265625 C 7.363281 19.1875 7.371094 19.179688 7.441406 19.140625 C 7.457031 19.132812 7.472656 19.121094 7.492188 19.109375 C 7.507812 19.101562 7.527344 19.089844 7.546875 19.078125 C 7.585938 19.054688 7.625 19.03125 7.664062 19.007812 C 7.683594 18.996094 7.703125 18.984375 7.722656 18.972656 C 7.808594 18.921875 7.894531 18.867188 7.980469 18.808594 C 8.117188 18.71875 8.253906 18.632812 8.394531 18.542969 C 8.558594 18.441406 8.71875 18.335938 8.882812 18.234375 C 9.046875 18.132812 9.207031 18.027344 9.371094 17.925781 C 9.53125 17.824219 9.691406 17.722656 9.847656 17.617188 C 9.878906 17.597656 9.910156 17.578125 9.9375 17.5625 C 9.972656 17.539062 10.003906 17.519531 10.035156 17.496094 C 10.058594 17.480469 10.058594 17.480469 10.085938 17.464844 C 10.097656 17.457031 10.113281 17.445312 10.128906 17.4375 C 10.246094 17.375 10.386719 17.445312 10.503906 17.480469 C 11.730469 17.839844 13.21875 17.75 14.371094 17.175781 C 14.414062 17.15625 14.460938 17.136719 14.507812 17.113281 C 15.03125 16.882812 15.507812 16.550781 15.925781 16.160156 C 15.976562 16.109375 16.03125 16.0625 16.085938 16.015625 C 16.179688 15.933594 16.257812 15.84375 16.335938 15.75 C 16.355469 15.726562 16.375 15.707031 16.394531 15.683594 C 17 14.992188 17.519531 14.046875 17.652344 13.136719 C 17.667969 13.011719 17.667969 13.011719 17.695312 12.960938 C 17.824219 12.265625 17.824219 11.492188 17.671875 10.804688 C 17.664062 10.773438 17.664062 10.773438 17.65625 10.738281 C 17.492188 9.945312 17.160156 9.21875 16.691406 8.558594 C 16.652344 8.503906 16.621094 8.453125 16.59375 8.390625 C 16.765625 8.253906 16.941406 8.125 17.125 8 C 17.246094 7.917969 17.363281 7.835938 17.480469 7.75 C 17.625 7.644531 17.773438 7.539062 17.921875 7.441406 C 18.058594 7.347656 18.195312 7.25 18.328125 7.148438 C 18.46875 7.042969 18.613281 6.9375 18.757812 6.835938 C 18.785156 6.816406 18.785156 6.816406 18.816406 6.796875 C 18.832031 6.78125 18.851562 6.769531 18.871094 6.757812 C 18.886719 6.746094 18.902344 6.734375 18.917969 6.722656 C 18.960938 6.703125 18.960938 6.703125 19.03125 6.726562 Z M 19.03125 6.726562 "/>
<path style=" stroke:none;fill-rule:nonzero;fill:rgb(83.137256%,98.431373%,20.784314%);fill-opacity:1;" d="M 11.652344 3.207031 C 11.683594 3.207031 11.683594 3.207031 11.71875 3.207031 C 11.789062 3.207031 11.859375 3.207031 11.933594 3.203125 C 11.957031 3.203125 11.980469 3.203125 12.007812 3.203125 C 12.597656 3.207031 13.179688 3.242188 13.757812 3.375 C 13.785156 3.382812 13.785156 3.382812 13.816406 3.386719 C 14.117188 3.457031 14.117188 3.457031 14.226562 3.492188 C 14.195312 3.558594 14.164062 3.609375 14.109375 3.660156 C 14.089844 3.679688 14.089844 3.679688 14.070312 3.699219 C 14.046875 3.71875 14.046875 3.71875 14.027344 3.742188 C 13.996094 3.769531 13.96875 3.796875 13.941406 3.824219 C 13.921875 3.839844 13.921875 3.839844 13.90625 3.859375 C 13.871094 3.890625 13.871094 3.890625 13.851562 3.9375 C 13.835938 3.9375 13.820312 3.9375 13.804688 3.9375 C 13.800781 3.949219 13.792969 3.960938 13.789062 3.976562 C 13.746094 4.050781 13.683594 4.109375 13.621094 4.171875 C 13.609375 4.1875 13.59375 4.199219 13.578125 4.214844 C 13.535156 4.261719 13.488281 4.304688 13.441406 4.351562 C 13.410156 4.382812 13.375 4.414062 13.34375 4.449219 C 13.261719 4.53125 13.175781 4.617188 13.089844 4.699219 C 12.957031 4.835938 12.820312 4.96875 12.683594 5.105469 C 12.636719 5.152344 12.589844 5.199219 12.542969 5.242188 C 12.402344 5.382812 12.265625 5.519531 12.140625 5.671875 C 11.675781 6.207031 11.675781 6.207031 11.453125 6.234375 C 11.382812 6.238281 11.308594 6.238281 11.234375 6.234375 C 11.132812 6.234375 11.035156 6.257812 10.933594 6.28125 C 10.914062 6.285156 10.898438 6.289062 10.878906 6.292969 C 9.886719 6.496094 8.984375 6.949219 8.226562 7.617188 C 8.207031 7.636719 8.183594 7.652344 8.164062 7.671875 C 7.9375 7.871094 7.734375 8.082031 7.546875 8.320312 C 7.519531 8.351562 7.519531 8.351562 7.492188 8.386719 C 6.855469 9.183594 6.472656 10.152344 6.328125 11.15625 C 6.324219 11.183594 6.320312 11.210938 6.316406 11.242188 C 6.300781 11.363281 6.300781 11.484375 6.300781 11.609375 C 6.300781 11.636719 6.300781 11.660156 6.300781 11.6875 C 6.300781 11.738281 6.300781 11.792969 6.300781 11.847656 C 6.300781 11.925781 6.296875 12.007812 6.296875 12.089844 C 6.296875 12.378906 6.3125 12.652344 6.375 12.9375 C 6.382812 12.980469 6.390625 13.023438 6.398438 13.066406 C 6.457031 13.375 6.527344 13.679688 6.65625 13.96875 C 6.671875 14.007812 6.6875 14.042969 6.699219 14.082031 C 6.914062 14.617188 7.203125 15.117188 7.570312 15.5625 C 7.535156 15.636719 7.496094 15.6875 7.4375 15.746094 C 7.414062 15.773438 7.414062 15.773438 7.386719 15.796875 C 7.359375 15.824219 7.359375 15.824219 7.332031 15.851562 C 7.308594 15.875 7.308594 15.875 7.28125 15.902344 C 7.183594 16 7.085938 16.089844 6.980469 16.179688 C 6.910156 16.242188 6.839844 16.3125 6.773438 16.382812 C 6.675781 16.480469 6.578125 16.574219 6.472656 16.664062 C 6.398438 16.730469 6.328125 16.804688 6.257812 16.875 C 6.085938 17.046875 6.085938 17.046875 6 17.121094 C 5.9375 17.175781 5.878906 17.230469 5.820312 17.289062 C 5.796875 17.3125 5.796875 17.3125 5.769531 17.335938 C 5.710938 17.394531 5.652344 17.457031 5.59375 17.515625 C 5.554688 17.554688 5.519531 17.589844 5.484375 17.625 C 5.386719 17.589844 5.335938 17.519531 5.277344 17.4375 C 5.265625 17.425781 5.253906 17.410156 5.242188 17.394531 C 5.21875 17.363281 5.195312 17.332031 5.171875 17.300781 C 5.144531 17.265625 5.121094 17.234375 5.09375 17.199219 C 4.617188 16.574219 4.238281 15.890625 3.9375 15.164062 C 3.929688 15.144531 3.921875 15.125 3.914062 15.105469 C 3.710938 14.617188 3.578125 14.109375 3.46875 13.59375 C 3.464844 13.578125 3.460938 13.558594 3.457031 13.539062 C 3.339844 13 3.316406 12.449219 3.316406 11.898438 C 3.316406 11.871094 3.316406 11.839844 3.316406 11.808594 C 3.320312 11.355469 3.335938 10.921875 3.421875 10.476562 C 3.429688 10.425781 3.441406 10.371094 3.449219 10.320312 C 3.5 10.03125 3.574219 9.753906 3.664062 9.476562 C 3.679688 9.425781 3.691406 9.375 3.707031 9.324219 C 4.019531 8.175781 4.675781 7.054688 5.476562 6.175781 C 5.507812 6.144531 5.535156 6.109375 5.566406 6.078125 C 5.683594 5.941406 5.808594 5.8125 5.933594 5.683594 C 5.957031 5.664062 5.976562 5.644531 5.996094 5.621094 C 6.140625 5.480469 6.289062 5.351562 6.445312 5.226562 C 6.476562 5.203125 6.507812 5.175781 6.535156 5.152344 C 6.933594 4.820312 7.355469 4.539062 7.804688 4.289062 C 7.824219 4.277344 7.84375 4.265625 7.867188 4.253906 C 8.585938 3.855469 9.367188 3.570312 10.171875 3.398438 C 10.199219 3.394531 10.222656 3.386719 10.25 3.382812 C 10.449219 3.335938 10.644531 3.304688 10.84375 3.277344 C 10.890625 3.273438 10.890625 3.273438 10.933594 3.265625 C 11.171875 3.234375 11.410156 3.207031 11.652344 3.207031 Z M 11.652344 3.207031 "/>
<path style=" stroke:none;fill-rule:nonzero;fill:rgb(60.784316%,88.235295%,18.82353%);fill-opacity:1;" d="M 17.835938 7.5 C 18.542969 8.367188 19.003906 9.457031 19.21875 10.546875 C 19.222656 10.570312 19.226562 10.589844 19.230469 10.613281 C 19.589844 12.425781 19.210938 14.40625 18.191406 15.953125 C 17.773438 16.570312 17.277344 17.164062 16.6875 17.625 C 16.660156 17.648438 16.632812 17.667969 16.605469 17.691406 C 16.40625 17.855469 16.203125 18.003906 15.984375 18.140625 C 15.96875 18.152344 15.949219 18.160156 15.933594 18.171875 C 15.691406 18.324219 15.449219 18.464844 15.1875 18.585938 C 15.167969 18.59375 15.152344 18.601562 15.132812 18.609375 C 14.601562 18.855469 14.046875 19.027344 13.476562 19.148438 C 13.457031 19.152344 13.441406 19.15625 13.421875 19.160156 C 12.96875 19.253906 12.523438 19.273438 12.0625 19.273438 C 12.019531 19.273438 12.019531 19.273438 11.976562 19.273438 C 11.546875 19.273438 11.132812 19.261719 10.710938 19.171875 C 10.6875 19.167969 10.660156 19.160156 10.636719 19.15625 C 9.925781 19.007812 9.257812 18.773438 8.625 18.421875 C 8.675781 18.371094 8.722656 18.332031 8.785156 18.292969 C 8.800781 18.28125 8.820312 18.269531 8.835938 18.257812 C 8.867188 18.242188 8.867188 18.242188 8.894531 18.222656 C 8.933594 18.199219 8.976562 18.171875 9.015625 18.148438 C 9.035156 18.136719 9.058594 18.121094 9.078125 18.109375 C 9.175781 18.050781 9.269531 17.988281 9.367188 17.929688 C 9.382812 17.917969 9.402344 17.90625 9.421875 17.894531 C 9.566406 17.804688 9.707031 17.710938 9.847656 17.617188 C 9.878906 17.597656 9.910156 17.578125 9.9375 17.5625 C 9.972656 17.539062 10.003906 17.519531 10.035156 17.496094 C 10.058594 17.480469 10.058594 17.480469 10.085938 17.464844 C 10.105469 17.449219 10.105469 17.449219 10.128906 17.4375 C 10.246094 17.375 10.386719 17.445312 10.503906 17.480469 C 11.730469 17.839844 13.21875 17.75 14.371094 17.175781 C 14.414062 17.15625 14.460938 17.136719 14.507812 17.113281 C 15.03125 16.882812 15.507812 16.550781 15.925781 16.160156 C 15.976562 16.109375 16.03125 16.0625 16.085938 16.015625 C 16.179688 15.933594 16.257812 15.84375 16.335938 15.75 C 16.355469 15.726562 16.375 15.707031 16.394531 15.683594 C 17 14.992188 17.519531 14.046875 17.652344 13.136719 C 17.667969 13.011719 17.667969 13.011719 17.695312 12.960938 C 17.824219 12.265625 17.824219 11.492188 17.671875 10.804688 C 17.664062 10.773438 17.664062 10.773438 17.65625 10.738281 C 17.492188 9.945312 17.160156 9.21875 16.691406 8.558594 C 16.652344 8.503906 16.621094 8.453125 16.59375 8.390625 C 16.765625 8.253906 16.941406 8.125 17.125 8 C 17.269531 7.902344 17.410156 7.800781 17.550781 7.695312 C 17.644531 7.628906 17.738281 7.5625 17.835938 7.5 Z M 17.835938 7.5 "/>
<path style=" stroke:none;fill-rule:nonzero;fill:rgb(74.901962%,88.235295%,18.82353%);fill-opacity:1;" d="M 11.699219 4.660156 C 11.71875 4.660156 11.738281 4.660156 11.761719 4.660156 C 11.824219 4.660156 11.890625 4.660156 11.953125 4.660156 C 11.976562 4.660156 11.996094 4.660156 12.019531 4.660156 C 12.367188 4.660156 12.710938 4.671875 13.054688 4.710938 C 12.90625 4.894531 12.738281 5.054688 12.570312 5.21875 C 12.421875 5.367188 12.277344 5.511719 12.140625 5.671875 C 11.679688 6.207031 11.679688 6.207031 11.453125 6.234375 C 11.382812 6.238281 11.308594 6.238281 11.234375 6.234375 C 11.132812 6.234375 11.035156 6.257812 10.933594 6.28125 C 10.914062 6.285156 10.898438 6.289062 10.878906 6.292969 C 9.886719 6.496094 8.984375 6.949219 8.226562 7.617188 C 8.195312 7.644531 8.195312 7.644531 8.164062 7.671875 C 7.9375 7.871094 7.734375 8.082031 7.546875 8.320312 C 7.519531 8.351562 7.519531 8.351562 7.492188 8.386719 C 6.855469 9.183594 6.472656 10.152344 6.328125 11.15625 C 6.324219 11.183594 6.320312 11.210938 6.316406 11.242188 C 6.300781 11.363281 6.300781 11.484375 6.300781 11.609375 C 6.300781 11.636719 6.300781 11.660156 6.300781 11.6875 C 6.300781 11.738281 6.300781 11.792969 6.300781 11.847656 C 6.300781 11.925781 6.296875 12.007812 6.296875 12.089844 C 6.296875 12.378906 6.3125 12.652344 6.375 12.9375 C 6.382812 12.980469 6.390625 13.023438 6.398438 13.066406 C 6.457031 13.375 6.527344 13.679688 6.65625 13.96875 C 6.671875 14.007812 6.6875 14.042969 6.699219 14.082031 C 6.914062 14.617188 7.203125 15.117188 7.570312 15.5625 C 7.535156 15.636719 7.496094 15.6875 7.4375 15.746094 C 7.414062 15.773438 7.414062 15.773438 7.386719 15.796875 C 7.359375 15.824219 7.359375 15.824219 7.332031 15.851562 C 7.308594 15.875 7.308594 15.875 7.28125 15.902344 C 7.183594 16 7.085938 16.089844 6.980469 16.179688 C 6.894531 16.257812 6.8125 16.34375 6.730469 16.429688 C 6.640625 16.519531 6.550781 16.59375 6.445312 16.664062 C 6.144531 16.355469 5.917969 15.984375 5.703125 15.613281 C 5.675781 15.570312 5.648438 15.527344 5.621094 15.480469 C 5.457031 15.210938 5.34375 14.917969 5.226562 14.625 C 5.21875 14.605469 5.210938 14.585938 5.203125 14.566406 C 5.003906 14.085938 4.875 13.546875 4.804688 13.03125 C 4.800781 13.011719 4.796875 12.988281 4.796875 12.96875 C 4.746094 12.648438 4.726562 12.332031 4.730469 12.007812 C 4.730469 11.984375 4.730469 11.984375 4.730469 11.960938 C 4.730469 10.839844 4.972656 9.691406 5.503906 8.699219 C 5.523438 8.664062 5.542969 8.625 5.5625 8.589844 C 6.042969 7.667969 6.722656 6.824219 7.550781 6.195312 C 7.578125 6.175781 7.605469 6.152344 7.632812 6.132812 C 8.695312 5.316406 9.953125 4.851562 11.273438 4.6875 C 11.289062 4.683594 11.304688 4.683594 11.320312 4.679688 C 11.449219 4.664062 11.574219 4.660156 11.699219 4.660156 Z M 11.699219 4.660156 "/>
<path style=" stroke:none;fill-rule:nonzero;fill:rgb(86.274511%,86.274511%,86.274511%);fill-opacity:1;" d="M 16.539062 2.582031 C 16.566406 2.589844 16.589844 2.59375 16.617188 2.601562 C 16.640625 2.605469 16.664062 2.613281 16.6875 2.617188 C 16.714844 2.625 16.738281 2.632812 16.765625 2.640625 C 16.796875 2.648438 16.828125 2.65625 16.855469 2.664062 C 16.875 2.667969 16.890625 2.675781 16.910156 2.679688 C 16.976562 2.699219 17.046875 2.714844 17.113281 2.734375 C 17.566406 2.855469 17.566406 2.855469 17.785156 2.921875 C 17.953125 2.972656 18.121094 3.011719 18.292969 3.050781 C 18.429688 3.082031 18.5625 3.121094 18.695312 3.164062 C 18.792969 3.195312 18.894531 3.21875 18.996094 3.242188 C 19.160156 3.285156 19.324219 3.328125 19.488281 3.375 C 19.648438 3.421875 19.808594 3.464844 19.96875 3.503906 C 20.152344 3.546875 20.332031 3.597656 20.511719 3.652344 C 20.675781 3.699219 20.839844 3.742188 21.007812 3.78125 C 21.117188 3.808594 21.222656 3.835938 21.328125 3.867188 C 21.328125 3.882812 21.328125 3.898438 21.328125 3.914062 C 21.292969 3.941406 21.292969 3.941406 21.246094 3.972656 C 21.21875 3.992188 21.21875 3.992188 21.191406 4.011719 C 21.160156 4.03125 21.160156 4.03125 21.132812 4.050781 C 21.089844 4.078125 21.050781 4.105469 21.007812 4.132812 C 20.988281 4.148438 20.964844 4.160156 20.945312 4.175781 C 20.851562 4.238281 20.761719 4.304688 20.671875 4.371094 C 20.503906 4.492188 20.332031 4.613281 20.160156 4.734375 C 20.035156 4.820312 19.910156 4.910156 19.785156 5 C 19.679688 5.074219 19.574219 5.148438 19.46875 5.222656 C 19.332031 5.320312 19.195312 5.417969 19.058594 5.515625 C 18.851562 5.667969 18.640625 5.8125 18.429688 5.960938 C 18.207031 6.117188 17.988281 6.273438 17.769531 6.433594 C 17.625 6.539062 17.476562 6.640625 17.328125 6.738281 C 17.171875 6.84375 17.019531 6.957031 16.871094 7.070312 C 16.75 7.160156 16.628906 7.246094 16.503906 7.332031 C 16.382812 7.414062 16.265625 7.496094 16.148438 7.582031 C 16.015625 7.675781 15.882812 7.773438 15.75 7.863281 C 15.597656 7.96875 15.449219 8.074219 15.300781 8.183594 C 15.132812 8.304688 14.960938 8.421875 14.792969 8.542969 C 14.707031 8.601562 14.625 8.660156 14.542969 8.71875 C 14.445312 8.789062 14.34375 8.859375 14.246094 8.929688 C 14.078125 9.046875 13.910156 9.167969 13.742188 9.289062 C 13.558594 9.421875 13.371094 9.550781 13.183594 9.679688 C 13.027344 9.789062 12.871094 9.902344 12.714844 10.015625 C 12.546875 10.136719 12.382812 10.253906 12.214844 10.371094 C 12.160156 10.40625 12.109375 10.445312 12.054688 10.484375 C 12.039062 10.496094 12.019531 10.507812 12 10.519531 C 11.96875 10.546875 11.933594 10.570312 11.898438 10.59375 C 11.808594 10.65625 11.71875 10.71875 11.625 10.78125 C 11.867188 10.847656 12.105469 10.914062 12.347656 10.980469 C 12.527344 11.027344 12.710938 11.078125 12.890625 11.128906 C 13.128906 11.199219 13.367188 11.261719 13.605469 11.320312 C 13.847656 11.382812 14.089844 11.445312 14.328125 11.515625 C 14.582031 11.585938 14.832031 11.652344 15.085938 11.714844 C 15.265625 11.757812 15.4375 11.808594 15.613281 11.863281 C 15.699219 11.890625 15.789062 11.910156 15.875 11.929688 C 16.0625 11.972656 16.246094 12.019531 16.429688 12.070312 C 16.429688 12.078125 16.429688 12.085938 16.429688 12.09375 C 16.171875 12.101562 15.925781 12.066406 15.671875 12.011719 C 15.4375 11.964844 15.203125 11.925781 14.96875 11.886719 C 14.644531 11.835938 14.320312 11.777344 13.996094 11.722656 C 13.910156 11.707031 13.824219 11.691406 13.742188 11.675781 C 13.722656 11.671875 13.703125 11.667969 13.683594 11.667969 C 13.648438 11.660156 13.613281 11.65625 13.578125 11.648438 C 13.457031 11.628906 13.457031 11.628906 13.40625 11.601562 C 13.347656 11.59375 13.289062 11.585938 13.230469 11.578125 C 13.0625 11.558594 13.0625 11.558594 13.007812 11.53125 C 12.949219 11.523438 12.890625 11.515625 12.832031 11.507812 C 12.664062 11.488281 12.664062 11.488281 12.609375 11.460938 C 12.570312 11.453125 12.53125 11.449219 12.492188 11.441406 C 12.464844 11.4375 12.441406 11.433594 12.414062 11.429688 C 12.375 11.425781 12.375 11.425781 12.335938 11.417969 C 11.84375 11.34375 11.355469 11.257812 10.867188 11.160156 C 10.84375 11.152344 10.84375 11.152344 10.820312 11.148438 C 10.804688 11.144531 10.789062 11.144531 10.773438 11.140625 C 10.679688 11.121094 10.589844 11.105469 10.492188 11.097656 C 10.40625 11.085938 10.40625 11.085938 10.359375 11.039062 C 10.519531 10.902344 10.675781 10.769531 10.839844 10.640625 C 10.945312 10.554688 11.050781 10.46875 11.15625 10.382812 C 11.199219 10.347656 11.242188 10.3125 11.285156 10.277344 C 11.304688 10.261719 11.328125 10.242188 11.347656 10.226562 C 11.414062 10.171875 11.476562 10.121094 11.542969 10.066406 C 11.5625 10.050781 11.585938 10.03125 11.609375 10.011719 C 11.648438 9.980469 11.691406 9.945312 11.730469 9.914062 C 11.828125 9.832031 11.925781 9.753906 12.023438 9.671875 C 12.179688 9.542969 12.335938 9.414062 12.496094 9.289062 C 12.621094 9.191406 12.742188 9.089844 12.859375 8.988281 C 12.96875 8.894531 13.078125 8.808594 13.191406 8.71875 C 13.285156 8.648438 13.375 8.574219 13.464844 8.496094 C 13.566406 8.40625 13.671875 8.324219 13.78125 8.238281 C 13.910156 8.140625 14.035156 8.035156 14.15625 7.929688 C 14.25 7.847656 14.34375 7.769531 14.441406 7.691406 C 14.527344 7.625 14.613281 7.550781 14.699219 7.480469 C 14.824219 7.378906 14.949219 7.277344 15.074219 7.179688 C 15.199219 7.082031 15.320312 6.980469 15.4375 6.878906 C 15.546875 6.785156 15.65625 6.699219 15.769531 6.609375 C 15.863281 6.539062 15.953125 6.464844 16.042969 6.386719 C 16.144531 6.296875 16.25 6.214844 16.359375 6.128906 C 16.488281 6.03125 16.613281 5.925781 16.734375 5.820312 C 16.832031 5.734375 16.929688 5.65625 17.027344 5.578125 C 17.136719 5.492188 17.238281 5.40625 17.34375 5.320312 C 17.386719 5.285156 17.429688 5.25 17.472656 5.214844 C 17.492188 5.199219 17.515625 5.179688 17.535156 5.164062 C 17.988281 4.792969 17.988281 4.792969 18.050781 4.742188 C 18.097656 4.703125 18.140625 4.667969 18.183594 4.632812 C 18.304688 4.535156 18.421875 4.4375 18.546875 4.34375 C 18.589844 4.316406 18.589844 4.316406 18.609375 4.265625 C 18.59375 4.265625 18.578125 4.265625 18.5625 4.265625 C 18.386719 4.269531 18.210938 4.253906 18.03125 4.238281 C 18 4.234375 17.96875 4.234375 17.9375 4.230469 C 17.871094 4.222656 17.804688 4.21875 17.738281 4.210938 C 17.582031 4.199219 17.421875 4.183594 17.265625 4.167969 C 17.210938 4.164062 17.15625 4.160156 17.101562 4.152344 C 16.863281 4.132812 16.625 4.113281 16.386719 4.089844 C 16.355469 4.089844 16.324219 4.085938 16.292969 4.082031 C 16.175781 4.074219 16.054688 4.0625 15.9375 4.054688 C 15.363281 4.003906 15.363281 4.003906 15.09375 3.960938 C 15.109375 3.953125 15.125 3.945312 15.140625 3.9375 C 15.140625 3.921875 15.140625 3.90625 15.140625 3.890625 C 15.15625 3.890625 15.171875 3.890625 15.1875 3.890625 C 15.191406 3.878906 15.199219 3.863281 15.203125 3.851562 C 15.242188 3.78125 15.292969 3.730469 15.347656 3.675781 C 15.359375 3.660156 15.371094 3.648438 15.382812 3.636719 C 15.421875 3.597656 15.460938 3.558594 15.5 3.519531 C 15.511719 3.507812 15.527344 3.492188 15.539062 3.480469 C 15.609375 3.410156 15.679688 3.339844 15.75 3.269531 C 15.820312 3.195312 15.894531 3.121094 15.964844 3.046875 C 16.019531 2.992188 16.078125 2.933594 16.132812 2.878906 C 16.160156 2.851562 16.183594 2.824219 16.210938 2.796875 C 16.25 2.761719 16.285156 2.722656 16.324219 2.6875 C 16.34375 2.664062 16.367188 2.644531 16.386719 2.621094 C 16.453125 2.578125 16.453125 2.578125 16.539062 2.582031 Z M 16.539062 2.582031 "/>
<path style=" stroke:none;fill-rule:nonzero;fill:rgb(86.666667%,86.666667%,87.450981%);fill-opacity:1;" d="M 4.171875 20.085938 C 4.1875 20.09375 4.203125 20.101562 4.21875 20.109375 C 4.183594 20.199219 4.140625 20.234375 4.054688 20.273438 C 4.039062 20.265625 4.023438 20.257812 4.007812 20.25 C 4.0625 20.195312 4.117188 20.140625 4.171875 20.085938 Z M 4.171875 20.085938 "/>
<path style=" stroke:none;fill-rule:nonzero;fill:rgb(73.333335%,73.725492%,74.509805%);fill-opacity:1;" d="M 16.195312 12.023438 C 16.3125 12.046875 16.3125 12.046875 16.429688 12.070312 C 16.429688 12.078125 16.429688 12.085938 16.429688 12.09375 C 16.359375 12.09375 16.289062 12.09375 16.21875 12.09375 C 16.210938 12.070312 16.203125 12.046875 16.195312 12.023438 Z M 16.195312 12.023438 "/>
</g>
</svg>
