<?xml version="1.0" encoding="UTF-8"?>
<svg version="1.1" xmlns="http://www.w3.org/2000/svg" width="1024" height="1024">
<path d="M0 0 C3.5847586 0.0032918 7.16949443 -0.00503668 10.75424555 -0.01181835 C17.02723825 -0.02208823 23.3002001 -0.0249674 29.57320038 -0.02290613 C38.90209366 -0.01984824 48.23095297 -0.02819759 57.55983963 -0.03865538 C75.19472692 -0.05797261 92.82960256 -0.06362278 110.46449919 -0.06476949 C124.08810421 -0.06568957 137.71170468 -0.06981142 151.33530823 -0.07617074 C155.2608948 -0.07796592 159.18648138 -0.07974555 163.11206797 -0.0815205 C164.08806731 -0.0819626 165.06406665 -0.08240469 166.06964173 -0.08286019 C193.51457154 -0.09516473 220.95949976 -0.10306172 248.40443245 -0.10217363 C249.43867088 -0.10214247 250.47290932 -0.10211131 251.53848831 -0.10207921 C256.78008324 -0.101913 262.02167816 -0.10171492 267.26327308 -0.1015098 C268.8246863 -0.10144996 268.8246863 -0.10144996 270.41764323 -0.10138892 C272.52268231 -0.10130804 274.62772138 -0.10122445 276.73276045 -0.10113813 C309.46903169 -0.09991317 342.20526146 -0.11491726 374.94152084 -0.14228326 C411.74765471 -0.17303904 448.55376133 -0.19021361 485.35990885 -0.18835682 C489.28863898 -0.18820757 493.21736911 -0.18811015 497.14609924 -0.18804819 C498.59705296 -0.18801322 498.59705296 -0.18801322 500.07731888 -0.18797755 C515.60933684 -0.18791614 531.14131866 -0.20066016 546.67332589 -0.21791271 C562.29894264 -0.23490957 577.9245068 -0.23681144 593.5501277 -0.22369407 C602.81894251 -0.21633158 612.08759705 -0.21988156 621.35639471 -0.23957875 C627.56486377 -0.2516513 633.77321779 -0.24890769 639.98168175 -0.23463776 C643.50783215 -0.22693544 647.03367436 -0.22514386 650.55980201 -0.24155246 C703.63480998 -0.44017991 748.86092044 17.2972906 787.09728256 54.14433783 C811.94138258 79.63901985 828.26926443 112.45036837 834.90978256 147.26933783 C835.08353334 148.12142376 835.25728412 148.97350969 835.43630007 149.85141641 C837.59802106 162.26027899 837.19840976 174.80624705 837.17912039 187.35955527 C837.17582859 190.94431387 837.18415707 194.5290497 837.19093874 198.11380082 C837.20120862 204.38679352 837.20408779 210.65975537 837.20202652 216.93275565 C837.19896863 226.26164893 837.20731798 235.59050824 837.21777577 244.9193949 C837.237093 262.55428219 837.24274317 280.18915783 837.24388989 297.82405446 C837.24480996 311.44765948 837.24893181 325.07125995 837.25529114 338.6948635 C837.25708631 342.62045007 837.25886594 346.54603666 837.26064089 350.47162324 C837.26108299 351.44762258 837.26152508 352.42362192 837.26198058 353.429197 C837.27428512 380.87412681 837.28218211 408.31905503 837.28129402 435.76398772 C837.28126286 436.79822615 837.2812317 437.83246459 837.2811996 438.89804358 C837.2810334 444.13963851 837.28083531 449.38123343 837.28063019 454.62282835 C837.28057035 456.18424158 837.28057035 456.18424158 837.28050931 457.7771985 C837.28042843 459.88223758 837.28034484 461.98727665 837.28025853 464.09231572 C837.27903357 496.82858696 837.29403765 529.56481673 837.32140365 562.30107611 C837.35215943 599.10720998 837.369334 635.9133166 837.36747721 672.71946412 C837.36732796 676.64819425 837.36723054 680.57692438 837.36716858 684.50565451 C837.36713361 685.95660823 837.36713361 685.95660823 837.36709794 687.43687415 C837.36703653 702.96889211 837.37978055 718.50087393 837.39703311 734.03288116 C837.41402996 749.65849791 837.41593183 765.28406207 837.40281446 780.90968297 C837.39545197 790.17849778 837.39900195 799.44715232 837.41869914 808.71594998 C837.43077169 814.92441904 837.42802808 821.13277306 837.41375815 827.34123702 C837.40605583 830.86738742 837.40426425 834.39322963 837.42067285 837.91935728 C837.61930031 890.99436525 819.88182979 936.22047571 783.03478256 974.45683783 C757.54010054 999.30093785 724.72875202 1015.6288197 689.90978256 1022.26933783 C689.05769663 1022.44308861 688.2056107 1022.61683939 687.32770398 1022.79585534 C674.9188414 1024.95757633 662.37287334 1024.55796503 649.81956512 1024.53867566 C646.23480652 1024.53538386 642.65007069 1024.54371234 639.06531957 1024.55049401 C632.79232687 1024.56076389 626.51936502 1024.56364306 620.24636474 1024.56158179 C610.91747146 1024.5585239 601.58861215 1024.56687325 592.25972549 1024.57733104 C574.6248382 1024.59664827 556.98996256 1024.60229844 539.35506593 1024.60344516 C525.73146091 1024.60436523 512.10786044 1024.60848708 498.4842569 1024.61484641 C494.55867032 1024.61664158 490.63308374 1024.61842121 486.70749715 1024.62019616 C485.73149781 1024.62063826 484.75549847 1024.62108035 483.74992339 1024.62153585 C456.30499359 1024.63384039 428.86006536 1024.64173738 401.41513267 1024.64084929 C400.38089424 1024.64081813 399.3466558 1024.64078698 398.28107681 1024.64075487 C393.03948189 1024.64058867 387.79788697 1024.64039059 382.55629204 1024.64018546 C380.99487882 1024.64012562 380.99487882 1024.64012562 379.40192189 1024.64006458 C377.29688282 1024.6399837 375.19184374 1024.63990011 373.08680467 1024.6398138 C340.35053343 1024.63858884 307.61430366 1024.65359292 274.87804428 1024.68095892 C238.07191042 1024.7117147 201.26580379 1024.72888928 164.45965627 1024.72703248 C160.53092614 1024.72688323 156.60219601 1024.72678581 152.67346588 1024.72672385 C151.22251216 1024.72668888 151.22251216 1024.72668888 149.74224624 1024.72665322 C134.21022828 1024.7265918 118.67824646 1024.73933582 103.14623923 1024.75658838 C87.52062248 1024.77358524 71.89505832 1024.7754871 56.26943742 1024.76236974 C47.00062261 1024.75500724 37.73196807 1024.75855722 28.46317041 1024.77825442 C22.25470135 1024.79032697 16.04634733 1024.78758335 9.83788337 1024.77331342 C6.31173297 1024.76561111 2.78589077 1024.76381952 -0.74023689 1024.78022812 C-53.81524485 1024.97885558 -99.04135532 1007.24138506 -137.27771744 970.39433783 C-162.12181746 944.89965581 -178.44969931 912.08830729 -185.09021744 877.26933783 C-185.26396822 876.4172519 -185.437719 875.56516597 -185.61673495 874.68725925 C-187.77845594 862.27839667 -187.37884463 849.73242861 -187.35955527 837.17912039 C-187.35626347 833.59436179 -187.36459195 830.00962596 -187.37137362 826.42487484 C-187.3816435 820.15188214 -187.38452267 813.87892029 -187.3824614 807.60592001 C-187.37940351 798.27702673 -187.38775286 788.94816743 -187.39821065 779.61928076 C-187.41752788 761.98439347 -187.42317805 744.34951783 -187.42432476 726.7146212 C-187.42524484 713.09101618 -187.42936669 699.46741571 -187.43572601 685.84381217 C-187.43752119 681.91822559 -187.43930082 677.99263901 -187.44107577 674.06705242 C-187.44151787 673.09105308 -187.44195996 672.11505374 -187.44241546 671.10947866 C-187.45472 643.66454886 -187.46261699 616.21962063 -187.4617289 588.77468794 C-187.46169774 587.74044951 -187.46166658 586.70621107 -187.46163448 585.64063208 C-187.46146827 580.39903716 -187.46127019 575.15744224 -187.46106507 569.91584731 C-187.46102518 568.87490516 -187.46098529 567.83396301 -187.46094419 566.76147716 C-187.46086331 564.65643809 -187.46077972 562.55139901 -187.4606934 560.44635994 C-187.45946845 527.7100887 -187.47447253 494.97385893 -187.50183853 462.23759955 C-187.53259431 425.43146569 -187.54976888 388.62535906 -187.54791209 351.81921154 C-187.54776284 347.89048141 -187.54766542 343.96175128 -187.54760346 340.03302115 C-187.54758015 339.06571867 -187.54755684 338.09841619 -187.54753282 337.10180151 C-187.54747141 321.56978355 -187.56021543 306.03780173 -187.57746799 290.5057945 C-187.59446484 274.88017776 -187.59636671 259.25461359 -187.58324934 243.62899269 C-187.57588685 234.36017788 -187.57943683 225.09152334 -187.59913402 215.82272568 C-187.61120657 209.61425662 -187.60846296 203.4059026 -187.59419303 197.19743864 C-187.58649071 193.67128825 -187.58469913 190.14544604 -187.60110773 186.61931838 C-187.79973518 133.54431042 -170.06226467 88.31819996 -133.21521744 50.08183783 C-107.72053542 25.23773781 -74.9091869 8.90985596 -40.09021744 2.26933783 C-39.23813151 2.09558705 -38.38604558 1.92183627 -37.50813886 1.74282032 C-25.09927628 -0.41890067 -12.55330822 -0.01928936 0 0 Z " fill="#282B36" transform="translate(187.09021743945777,-0.2693378310650587)"/>
<path d="M0 0 C1.10373459 0.27478683 2.20746918 0.54957367 3.34465027 0.83268738 C4.35140808 1.072453 5.35816589 1.31221863 6.39543152 1.55924988 C7.47179871 1.85573425 8.54816589 2.15221863 9.65715027 2.45768738 C10.96829086 2.81597013 12.279494 3.17402407 13.59074402 3.53190613 C14.3292157 3.73477234 15.06768738 3.93763855 15.82853699 4.14665222 C18.71777064 4.93442115 21.61099254 5.70644671 24.50480652 6.47721863 C43.89118746 11.64920365 43.89118746 11.64920365 53.15715027 14.45768738 C60.31251031 16.62389186 67.54666383 18.3414649 74.82804871 20.02848816 C80.62419526 21.3841934 86.27433192 22.98557723 91.94230652 24.80924988 C96.20948609 26.09283317 100.51649734 27.15149351 104.84465027 28.20768738 C111.89381271 29.92970184 118.8777525 31.80348128 125.84465027 33.83268738 C132.64689458 35.81227622 139.46225564 37.65273278 146.34465027 39.33268738 C154.10997481 41.2281603 161.78415185 43.35982047 169.4584198 45.59342957 C176.49471713 47.62634223 183.57127373 49.44911654 190.68644714 51.18424988 C195.27242163 52.30296713 199.81478651 53.50392734 204.34465027 54.83268738 C204.34465027 55.49268738 204.34465027 56.15268738 204.34465027 56.83268738 C202.88615417 58.04679871 202.88615417 58.04679871 200.82121277 59.41471863 C199.67471252 60.18416809 199.67471252 60.18416809 198.50505066 60.96916199 C197.66836853 61.52225037 196.8316864 62.07533875 195.96965027 62.64518738 C194.20920369 63.82810331 192.45011985 65.01304947 190.69230652 66.19987488 C189.79528015 66.80541199 188.89825378 67.4109491 187.9740448 68.03483582 C184.06515262 70.70754538 180.23295321 73.4803786 176.40715027 76.27018738 C169.17315847 81.534615 161.86876876 86.68967139 154.53117371 91.80851746 C149.1603313 95.55689605 143.81338307 99.3355298 138.49113464 103.1525116 C134.04257313 106.34099341 129.57064992 109.49537209 125.09465027 112.64518738 C119.20846382 116.78933945 113.35915804 120.98078937 107.53215027 125.20768738 C98.67501014 131.62855962 89.71484183 137.89697978 80.74357605 144.15690613 C71.26044078 150.78139631 61.82809474 157.47069257 52.46965027 164.27018738 C46.29291432 168.75797209 40.04119792 173.11408666 33.71965027 177.39518738 C27.06347949 181.9049916 20.58551392 186.58866208 14.18742371 191.45622253 C9.05936587 195.34130879 3.8059945 199.00437839 -1.51545715 202.61833191 C-6.62899306 206.10033824 -11.65256224 209.69366467 -16.65534973 213.33268738 C-22.26917741 217.41400119 -27.91945512 221.42473877 -33.65534973 225.33268738 C-40.14205887 229.75423355 -46.5187086 234.31332544 -52.87190247 238.92424011 C-60.05087374 244.13151667 -67.2920736 249.24734852 -74.54646301 254.34880066 C-78.08576122 256.83917511 -81.62035786 259.33620585 -85.15534973 261.83268738 C-89.3913442 264.82423087 -93.62821582 267.81447566 -97.87019348 270.79753113 C-105.04246826 275.84487205 -112.18385569 280.9292716 -119.28034973 286.08268738 C-127.14859029 291.7934932 -135.12124895 297.34587872 -143.11335754 302.8815155 C-149.87396945 307.5721838 -156.56942399 312.34319969 -163.22737122 317.17814636 C-170.27046045 322.29079572 -177.37895424 327.30772018 -184.49812317 332.31364441 C-186.76385256 333.90909125 -189.02637742 335.50899776 -191.28816223 337.11003113 C-192.05056213 337.64942322 -192.81296204 338.18881531 -193.59846497 338.74455261 C-195.04887822 339.77087027 -196.49893585 340.79769079 -197.94856262 341.82511902 C-201.81204724 344.55658519 -205.70523808 347.22794812 -209.65534973 349.83268738 C-199.40087262 352.7076506 -189.1307225 355.51700932 -178.84284973 358.27018738 C-171.11056519 360.33957817 -163.40168679 362.46550071 -155.71784973 364.70768738 C-145.57035008 367.65837164 -135.33604083 370.25122207 -125.09629822 372.85801697 C-114.7728787 375.4880222 -104.49711319 378.23539358 -94.25300598 381.16178894 C-83.54618689 384.19538768 -72.76061164 386.92074038 -61.96980286 389.63737488 C-54.39874381 391.55246112 -46.92665565 393.62598653 -39.47468567 395.97306824 C-35.81015027 397.09038978 -32.14744692 397.94828951 -28.40534973 398.77018738 C-21.75660875 400.27141791 -15.24166761 402.06851967 -8.71711731 404.03630066 C-2.74297215 405.83226532 3.27409078 407.39399987 9.34465027 408.83268738 C9.34465027 409.49268738 9.34465027 410.15268738 9.34465027 410.83268738 C7.82609558 411.95500183 7.82609558 411.95500183 5.67277527 413.19596863 C4.87387878 413.66365662 4.0749823 414.1313446 3.25187683 414.61320496 C2.37499207 415.11875916 1.4981073 415.62431335 0.59465027 416.14518738 C-6.5150679 420.32331741 -13.51628275 424.61226366 -20.40534973 429.14518738 C-27.69792462 433.93555651 -35.05538763 438.6050184 -42.46784973 443.20768738 C-50.42813766 448.15454684 -58.32097569 453.18877758 -66.15534973 458.33268738 C-74.94187773 464.0998804 -83.80979931 469.72028916 -92.73420715 475.27140808 C-100.42683533 480.0573061 -108.07970184 484.90244725 -115.71809387 489.77433777 C-121.52118122 493.47539582 -127.33329406 497.16154426 -133.15534973 500.83268738 C-142.7397608 506.87831642 -152.29945687 512.96248741 -161.85700989 519.05046082 C-166.45558735 521.97923551 -171.05553 524.90586429 -175.65534973 527.83268738 C-177.48868977 528.99934351 -179.3220231 530.16601018 -181.15534973 531.33268738 C-184.8220164 533.66602071 -188.48868306 535.99935404 -192.15534973 538.33268738 C-193.51696228 539.19917908 -193.51696228 539.19917908 -194.90608215 540.08317566 C-196.73694727 541.24825686 -198.56783914 542.41329601 -200.39875793 543.57829285 C-205.02007686 546.51887059 -209.64090893 549.4602083 -214.26081848 552.40299988 C-227.63979594 560.92379379 -241.04041901 569.40958994 -254.46394348 577.86003113 C-261.95288306 582.57778997 -269.42470534 587.31675666 -276.84284973 592.14518738 C-283.62714707 596.55807868 -290.4743501 600.86468327 -297.34284973 605.14518738 C-312.44879935 614.55947373 -327.47009045 624.10147129 -342.3997345 633.79289246 C-349.97777778 638.70427062 -357.61922307 643.51448216 -365.26130676 648.32536316 C-378.81830404 656.86104552 -392.34508847 665.44363246 -405.85700989 674.05046082 C-411.3695622 677.5613343 -416.88396378 681.06930241 -422.39802551 684.57780457 C-427.01957497 687.51856643 -431.64066151 690.4600507 -436.26081848 693.40299988 C-445.65335365 699.38483792 -455.05371647 705.3536676 -464.4724884 711.29411316 C-471.47610538 715.71367983 -478.46183258 720.16111762 -485.44636536 724.61076355 C-491.5069026 728.47013844 -497.57749099 732.31315878 -503.65534973 736.14518738 C-513.38284479 742.28057223 -523.09881192 748.43309255 -532.65534973 754.83268738 C-533.31534973 754.50268738 -533.97534973 754.17268738 -534.65534973 753.83268738 C-533.65898786 752.80830283 -532.65795686 751.78846025 -531.65534973 750.77018738 C-530.82003723 749.91747253 -530.82003723 749.91747253 -529.96784973 749.04753113 C-527.99250909 747.15560859 -525.97674716 745.37069107 -523.90534973 743.58659363 C-519.61850968 739.85992052 -515.63115085 735.88614087 -511.65534973 731.83268738 C-507.11552715 727.20419639 -502.50548136 722.77891891 -497.59284973 718.54753113 C-494.47030971 715.78383139 -491.57115791 712.81115678 -488.65534973 709.83268738 C-481.42345296 702.51697565 -481.42345296 702.51697565 -477.71784973 699.39518738 C-473.62913823 695.94230142 -469.91800276 692.1319154 -466.15534973 688.33268738 C-461.83206318 683.96737617 -457.50858142 679.72654777 -452.80769348 675.76628113 C-448.9757674 672.3238067 -445.41033057 668.60602336 -441.78791809 664.94572449 C-438.26056595 661.39566103 -434.66653157 658.03178927 -430.84284973 654.80143738 C-427.65714205 651.93430046 -424.66950428 648.87836662 -421.65534973 645.83268738 C-414.37430684 638.47557247 -414.37430684 638.47557247 -410.71784973 635.39518738 C-406.62913823 631.94230142 -402.91800276 628.1319154 -399.15534973 624.33268738 C-394.83206318 619.96737617 -390.50858142 615.72654777 -385.80769348 611.76628113 C-382.63182293 608.91318508 -379.65775421 605.86645675 -376.65534973 602.83268738 C-369.37424771 595.47552265 -369.37424771 595.47552265 -365.71784973 592.39518738 C-361.629138 588.94230123 -357.91800497 585.13191319 -354.15534973 581.33268738 C-349.85347331 576.9890401 -345.5522707 572.77219977 -340.87409973 568.83268738 C-337.50522912 565.79595894 -334.34625315 562.55457044 -331.15534973 559.33268738 C-326.85347117 554.989043 -322.55227074 550.77219981 -317.87409973 546.83268738 C-314.50522912 543.79595894 -311.34625315 540.55457044 -308.15534973 537.33268738 C-303.85347117 532.989043 -299.55227074 528.77219981 -294.87409973 524.83268738 C-291.50522912 521.79595894 -288.34625315 518.55457044 -285.15534973 515.33268738 C-277.30473998 507.40585811 -277.30473998 507.40585811 -273.65534973 504.33268738 C-270.95582942 502.01826119 -268.40274408 499.62500984 -265.91316223 497.08659363 C-264.89609192 496.05792175 -264.89609192 496.05792175 -263.85847473 495.00846863 C-262.48656859 493.61335355 -261.11927122 492.21368946 -259.75691223 490.80924988 C-259.12784973 490.16858582 -258.49878723 489.52792175 -257.85066223 488.86784363 C-257.00012268 487.99204651 -257.00012268 487.99204651 -256.13240051 487.09855652 C-254.65534973 485.83268738 -254.65534973 485.83268738 -252.65534973 485.83268738 C-252.65534973 485.17268738 -252.65534973 484.51268738 -252.65534973 483.83268738 C-251.36238098 482.56315613 -251.36238098 482.56315613 -249.46784973 481.02018738 C-245.48558024 477.64622193 -241.81634038 474.04536756 -238.15534973 470.33268738 C-234.78649623 466.92471109 -231.44768463 463.54849802 -227.78034973 460.45768738 C-221.57451767 455.19737908 -215.98000204 449.23450773 -210.26277161 443.45622253 C-208.40026505 441.57504565 -206.52957774 439.70218248 -204.65534973 437.83268738 C-205.77812317 437.57874207 -206.90089661 437.32479675 -208.05769348 437.06315613 C-209.56946521 436.71573033 -211.08118097 436.36806094 -212.59284973 436.02018738 C-213.32825989 435.85454285 -214.06367004 435.68889832 -214.82136536 435.51823425 C-218.65418639 434.63116214 -222.37672617 433.62836095 -226.09675598 432.34440613 C-230.8801222 430.70224669 -235.72597995 429.56920741 -240.65534973 428.45768738 C-247.24020341 426.93405354 -253.75098826 425.29887924 -260.21784973 423.33268738 C-266.24154676 421.50146636 -272.28889745 419.88761362 -278.40534973 418.39518738 C-288.0517803 416.03561539 -297.57976317 413.32889398 -307.11677551 410.56462097 C-319.08644459 407.11346999 -331.09817265 403.90373134 -343.20613098 400.97331238 C-357.82327111 397.40305536 -372.25158411 393.17638513 -386.65534973 388.83268738 C-381.98061722 383.17124494 -376.93049236 377.98692717 -371.71771812 372.81989098 C-370.2317055 371.34679623 -368.74897513 369.87046471 -367.26699829 368.39331055 C-364.12844083 365.26609002 -360.98592771 362.14286355 -357.84284973 359.02018738 C-354.18100736 355.38196979 -350.52081705 351.74212074 -346.86478615 348.09806252 C-345.40378951 346.64354743 -343.93981701 345.19207332 -342.47570801 343.74069214 C-341.59421585 342.8625032 -340.71272369 341.98431427 -339.80451965 341.07951355 C-339.02541733 340.30564804 -338.246315 339.53178253 -337.44360352 338.73446655 C-335.59462861 336.95033296 -335.59462861 336.95033296 -334.65534973 334.83268738 C-333.99534973 334.83268738 -333.33534973 334.83268738 -332.65534973 334.83268738 C-332.65534973 334.17268738 -332.65534973 333.51268738 -332.65534973 332.83268738 C-331.99534973 332.83268738 -331.33534973 332.83268738 -330.65534973 332.83268738 C-330.3428553 332.03172638 -330.3428553 332.03172638 -330.02404785 331.21458435 C-328.11096726 327.88531779 -325.47072595 325.39522248 -322.75617981 322.72233582 C-322.15265686 322.12012711 -321.54913391 321.5179184 -320.92732239 320.89746094 C-318.93106422 318.9076926 -316.92792566 316.92499672 -314.92488098 314.94206238 C-313.53152417 313.55498002 -312.13868396 312.16737855 -310.74633789 310.77928162 C-307.07565399 307.12190577 -303.39945557 303.47012764 -299.72163391 299.81993103 C-293.85192962 293.99330451 -287.98880169 288.16008157 -282.12907982 282.32341766 C-280.08928635 280.29377171 -278.04606968 278.26762052 -276.00247192 276.24180603 C-270.68888642 270.96249056 -265.45010124 265.71254734 -260.59796143 260.00138855 C-256.04732088 254.92112494 -251.11471025 250.18676281 -246.27846146 245.38063431 C-244.19170326 243.30675042 -242.10818241 241.22966139 -240.0254364 239.15174866 C-235.61322419 234.75089691 -231.19706523 230.35401896 -226.78034973 225.95768738 C-221.63946367 220.84040438 -216.50020912 215.72150451 -211.36512375 210.59840012 C-209.31025878 208.55002662 -207.25241244 206.50468041 -205.19444275 204.45942688 C-203.94314668 203.21176095 -202.69198946 201.96395576 -201.44099426 200.71598816 C-200.86649033 200.14665054 -200.29198639 199.57731293 -199.70007324 198.99072266 C-196.82112411 196.18236837 -196.82112411 196.18236837 -194.65534973 192.83268738 C-193.99534973 192.83268738 -193.33534973 192.83268738 -192.65534973 192.83268738 C-192.65534973 192.17268738 -192.65534973 191.51268738 -192.65534973 190.83268738 C-191.99534973 190.83268738 -191.33534973 190.83268738 -190.65534973 190.83268738 C-190.38180003 190.23395939 -190.10825033 189.6352314 -189.82641125 189.01836014 C-188.69254424 186.90210732 -187.61022908 185.54278285 -185.91836548 183.86192322 C-185.36198395 183.30423752 -184.80560242 182.74655182 -184.23236084 182.17196655 C-183.62404922 181.57241653 -183.01573761 180.97286652 -182.38899231 180.35514832 C-181.74645508 179.71392532 -181.10391785 179.07270233 -180.44190979 178.41204834 C-178.31579048 176.29242119 -176.18278573 174.17985953 -174.04988098 172.06706238 C-172.56684344 170.59029864 -171.08432214 169.1130163 -169.60229492 167.63523865 C-165.69487613 163.74113019 -161.78194035 159.85261681 -157.86738586 155.96568298 C-151.61867488 149.76004573 -145.37654397 143.54780938 -139.13780785 137.33214569 C-136.96505641 135.16955002 -134.78888409 133.01044209 -132.61233521 130.85166931 C-131.26433063 129.5105011 -129.91643968 128.16921868 -128.56867981 126.82780457 C-127.97048935 126.23635147 -127.37229889 125.64489838 -126.75598145 125.03552246 C-123.10672554 121.39596192 -119.68518255 117.61604248 -116.31432247 113.71806335 C-114.00742432 111.09633833 -111.58012685 108.64547824 -109.10310364 106.18278503 C-108.34320129 105.42507309 -108.34320129 105.42507309 -107.56794739 104.65205383 C-106.48496528 103.57283244 -105.40083155 102.49476559 -104.31561661 101.41778946 C-102.59849125 99.71358029 -100.88464361 98.00613274 -99.17155457 96.29786682 C-95.54397967 92.68162901 -91.9124456 89.0693836 -88.28034973 85.45768738 C-84.04812118 81.24907928 -79.81754129 77.03884029 -75.59112167 72.82439804 C-73.90188388 71.14164486 -72.2096674 69.46192655 -70.51731873 67.78230286 C-69.48847549 66.75708978 -68.45977107 65.73173738 -67.43122864 64.70622253 C-66.53078827 63.81101898 -65.6303479 62.91581543 -64.70262146 61.9934845 C-62.62089458 60.00588413 -62.62089458 60.00588413 -61.65534973 57.83268738 C-60.99534973 57.83268738 -60.33534973 57.83268738 -59.65534973 57.83268738 C-59.65534973 57.17268738 -59.65534973 56.51268738 -59.65534973 55.83268738 C-58.99534973 55.83268738 -58.33534973 55.83268738 -57.65534973 55.83268738 C-57.4261937 55.28083267 -57.19703766 54.72897797 -56.9609375 54.16040039 C-55.28103187 51.16532163 -53.16895044 49.04495655 -50.76594543 46.58927917 C-50.26971176 46.07990311 -49.77347809 45.57052704 -49.26220703 45.04571533 C-47.62437481 43.36858247 -45.97870529 41.69946689 -44.33113098 40.03190613 C-43.48644792 39.17499648 -43.48644792 39.17499648 -42.62470055 38.30077553 C-39.64651093 35.28094612 -36.66186904 32.26765953 -33.67219543 29.25920105 C-30.58601409 26.15083965 -27.52389528 23.01984255 -24.46651936 19.88318157 C-22.10944707 17.47385887 -19.73481213 15.08244221 -17.35507774 12.6955204 C-16.21803473 11.54873265 -15.08776023 10.39519239 -13.96451759 9.23488426 C-12.39183401 7.61355602 -10.79581832 6.01929918 -9.19172668 4.42912292 C-8.28952896 3.51519272 -7.38733124 2.60126251 -6.45779419 1.65963745 C-3.65534973 -0.16731262 -3.65534973 -0.16731262 0 0 Z " fill="#FEFEFE" transform="translate(705.6553497314453,110.16731262207031)"/>
<path d="M0 0 C1.45117187 1.64794922 1.45117187 1.64794922 2.96875 3.8046875 C3.53432617 4.60600098 4.09990234 5.40731445 4.68261719 6.23291016 C5.28235352 7.1047998 5.88208984 7.97668945 6.5 8.875 C7.12293945 9.77395996 7.74587891 10.67291992 8.38769531 11.59912109 C13.9494537 19.73123687 18.94598018 28.11367822 23.72509766 36.72363281 C24.95108196 38.91265572 26.20961848 41.07897385 27.48046875 43.2421875 C47.44937251 77.58616472 61.0821961 117.07026341 67.546875 156.27734375 C67.86246613 158.17361114 68.19728289 160.06673679 68.546875 161.95703125 C72.08445761 181.53324853 72.3770401 201.07901002 72.37516785 220.90998077 C72.37505651 222.29632849 72.37591127 223.68267664 72.37776184 225.06902313 C72.4169014 254.46359576 72.4169014 254.46359576 70 269 C69.71196526 271.03884042 69.42543324 273.07789387 69.140625 275.1171875 C66.05638015 295.4575651 62.07019762 315.63931549 55 335 C54.45206431 336.60203619 53.90958968 338.20596107 53.375 339.8125 C53.14167969 340.50472656 52.90835938 341.19695312 52.66796875 341.91015625 C52.20237327 343.36684387 51.76988301 344.83435055 51.36328125 346.30859375 C49.69038917 352.35227901 47.34207087 357.83457399 44.64453125 363.4921875 C43.27257649 366.41858981 41.99075247 369.36433226 40.7421875 372.34472656 C30.91873695 395.60389163 18.37469006 417.92704818 3.32861328 438.20654297 C1.89485357 440.14193416 0.47694263 442.08844817 -0.94140625 444.03515625 C-6.89017595 452.14295362 -13.11009745 459.6667472 -20 467 C-21.25750673 468.41000754 -22.50819913 469.82614079 -23.75 471.25 C-24.29527344 471.87390625 -24.84054687 472.4978125 -25.40234375 473.140625 C-26.51166993 474.43167453 -27.60712588 475.73472046 -28.69140625 477.046875 C-29.22636719 477.69140625 -29.76132812 478.3359375 -30.3125 479 C-30.78300781 479.5775 -31.25351562 480.155 -31.73828125 480.75 C-33 482 -33 482 -35 482 C-35 482.66 -35 483.32 -35 484 C-36.46875 485.4453125 -36.46875 485.4453125 -38.5 487.125 C-41.41624089 489.59690996 -44.15670308 492.12572783 -46.8125 494.875 C-50.69403924 498.80960716 -54.8626424 502.27484097 -59.171875 505.73046875 C-60.96860786 507.17232206 -62.75169869 508.63147359 -64.515625 510.11328125 C-83.15322631 525.74942836 -103.69057406 538.37578197 -125 550 C-125.75958008 550.41668945 -126.51916016 550.83337891 -127.30175781 551.26269531 C-129.71631653 552.58178716 -132.13807468 553.88664268 -134.5625 555.1875 C-135.28107178 555.57945557 -135.99964355 555.97141113 -136.73999023 556.37524414 C-143.91407302 560.18068253 -151.43248914 563.08973867 -159 566 C-159.64621307 566.24922211 -160.29242615 566.49844421 -160.95822144 566.75521851 C-179.03791722 573.70450695 -197.00968676 580.00034291 -216 584 C-217.76561279 584.38212646 -217.76561279 584.38212646 -219.56689453 584.77197266 C-267.0376931 594.94297289 -315.13661564 596.38423229 -363 588 C-365.07794231 587.66163656 -367.15604895 587.32427958 -369.234375 586.98828125 C-380.32568782 585.11301451 -390.95199427 582.12801209 -401.66259766 578.72607422 C-403.86417016 578.04219323 -406.07207657 577.40301391 -408.29296875 576.78515625 C-440.19231726 567.90653547 -471.51091083 553.47317231 -499 535 C-497.87351132 531.62053396 -497.48205494 531.3969376 -494.5625 529.6875 C-493.8413501 529.25767822 -493.1202002 528.82785645 -492.37719727 528.38500977 C-491.59272217 527.92795654 -490.80824707 527.47090332 -490 527 C-488.3412978 526.01104104 -486.68377167 525.02010725 -485.02734375 524.02734375 C-484.18413574 523.52315918 -483.34092773 523.01897461 -482.47216797 522.49951172 C-478.78539396 520.26327175 -475.17147997 517.92157604 -471.5625 515.5625 C-465.67423 511.72464022 -459.75978162 507.93331873 -453.8125 504.1875 C-446.86313968 499.81012458 -439.9265891 495.41332698 -433 491 C-426.07341005 486.58667247 -419.13676425 482.19002871 -412.1875 477.8125 C-405.35191905 473.5052751 -398.5513136 469.14714035 -391.7800293 464.73950195 C-390.49973996 463.90688867 -389.21764215 463.07704845 -387.93359375 462.25024414 C-386.57032848 461.36876921 -385.21416648 460.47626063 -383.86328125 459.57592773 C-382.81140625 458.88865601 -382.81140625 458.88865601 -381.73828125 458.1875 C-381.10833252 457.76984375 -380.47838379 457.3521875 -379.8293457 456.921875 C-374.84081831 454.40797143 -368.78213102 457.34566676 -363.8125 458.8125 C-311.4504772 474.13117688 -247.94068315 470.33883269 -198.87890625 445.91210938 C-196.94730707 444.97442038 -194.99665892 444.09877329 -193.03125 443.234375 C-170.64092242 433.29816913 -150.36394522 419.21540115 -132.578125 402.42578125 C-130.33280639 400.31314056 -128.0409979 398.30219384 -125.6875 396.3125 C-121.71777163 392.85525705 -118.38329807 389.02229074 -115 385 C-114.17628906 384.06414062 -113.35257813 383.12828125 -112.50390625 382.1640625 C-86.73942627 352.73088403 -64.58197624 312.40058324 -58.875 273.4375 C-58.09796673 268.19593346 -58.09796673 268.19593346 -57 266 C-51.44031153 236.39718919 -51.50407266 203.35001989 -58 174 C-58.28883057 172.62424805 -58.28883057 172.62424805 -58.58349609 171.22070312 C-65.7331894 137.36568085 -79.7809807 106.40934334 -99.78515625 78.22265625 C-101.42954126 75.83003256 -102.82916903 73.63933083 -104 71 C-96.60521765 65.16268037 -89.0852448 59.60638736 -81.2902832 54.31469727 C-76.18774085 50.84197443 -71.17589167 47.25943844 -66.1875 43.625 C-59.99130475 39.11356477 -53.72200131 34.73395143 -47.375 30.4375 C-41.46601153 26.4343085 -35.67809139 22.32439786 -30 18 C-23.98408531 13.43413799 -17.88300435 9.00700001 -11.6875 4.6875 C-10.45870117 3.81448242 -10.45870117 3.81448242 -9.20507812 2.92382812 C-8.44001953 2.39595703 -7.67496094 1.86808594 -6.88671875 1.32421875 C-6.20826904 0.85072998 -5.52981934 0.37724121 -4.83081055 -0.1105957 C-3 -1 -3 -1 0 0 Z " fill="#A6FB34" transform="translate(812,287)"/>
<path d="M0 0 C1.4141217 -0.01045349 1.4141217 -0.01045349 2.85681152 -0.02111816 C5.90198257 -0.03847063 8.94696898 -0.0448437 11.9921875 -0.046875 C13.03542175 -0.04788208 14.07865601 -0.04888916 15.15350342 -0.04992676 C40.39434183 -0.03349549 65.17960511 1.61270526 89.8671875 7.203125 C91.09187744 7.47672852 91.09187744 7.47672852 92.34130859 7.75585938 C105.20311079 10.64843276 105.20311079 10.64843276 109.8671875 12.203125 C108.55411501 15.11659093 107.15537162 17.1482229 104.86328125 19.3671875 C103.99993164 20.21410156 103.99993164 20.21410156 103.11914062 21.078125 C102.22098633 21.944375 102.22098633 21.944375 101.3046875 22.828125 C100.11369366 23.98472651 98.92478745 25.14348278 97.73828125 26.3046875 C96.94828735 27.06773193 96.94828735 27.06773193 96.14233398 27.84619141 C94.7507658 29.19712605 94.7507658 29.19712605 93.8671875 31.203125 C93.2071875 31.203125 92.5471875 31.203125 91.8671875 31.203125 C91.65696457 31.73899231 91.44674164 32.27485962 91.23014832 32.82696533 C89.34144927 36.11968692 86.74345923 38.57990595 84.05981445 41.22167969 C83.46604507 41.81413483 82.8722757 42.40658997 82.26051331 43.01699829 C80.29672039 44.974302 78.32604846 46.92453136 76.35546875 48.875 C74.98453212 50.23966201 73.61411218 51.60484326 72.2441864 52.97052002 C68.63268622 56.56871277 65.01567219 60.16130708 61.39703369 63.75231934 C55.62208105 69.48419311 49.85370376 75.2226626 44.08873558 80.96457672 C42.08218166 82.96098535 40.07220393 84.95389732 38.06184387 86.94647217 C32.11081994 92.8580505 26.25308734 98.76279596 20.8671875 105.203125 C1.08691307 128.00079457 1.08691307 128.00079457 -8.44628906 129.24438477 C-11.54783784 129.35674548 -14.62304636 129.30770632 -17.72363281 129.18505859 C-22.12519404 129.21806584 -26.3456706 130.21417662 -30.6328125 131.140625 C-31.42123535 131.29998535 -32.2096582 131.4593457 -33.02197266 131.62353516 C-75.33343859 140.37671413 -113.83992581 159.62305683 -146.1328125 188.203125 C-147.01453125 188.97398437 -147.89625 189.74484375 -148.8046875 190.5390625 C-158.45461498 199.08014738 -167.16194961 208.07463198 -175.1328125 218.203125 C-176.28523438 219.61271484 -176.28523438 219.61271484 -177.4609375 221.05078125 C-204.62304216 255.00341208 -220.98957645 296.39500196 -227.1328125 339.203125 C-227.3093335 340.39389648 -227.48585449 341.58466797 -227.66772461 342.81152344 C-228.30912264 348.04692386 -228.31400589 353.27436755 -228.3359375 358.54296875 C-228.34163757 359.62332901 -228.34733765 360.70368927 -228.35321045 361.81678772 C-228.3626233 364.09863315 -228.36917959 366.38049195 -228.37304688 368.66235352 C-228.38269485 372.09872174 -228.41373089 375.53447637 -228.4453125 378.97070312 C-228.50522474 391.42308386 -227.83056861 403.04708351 -225.1328125 415.203125 C-224.79516041 417.01434809 -224.46341218 418.82669378 -224.140625 420.640625 C-221.61493538 433.88612109 -218.56293202 446.81607975 -213.1328125 459.203125 C-212.49733594 460.80181457 -211.86612378 462.40220323 -211.23828125 464.00390625 C-202.12570975 486.87391145 -189.74111078 508.14691284 -174.1328125 527.203125 C-175.552738 530.43361248 -177.26900637 532.58554988 -179.765625 535.06640625 C-180.85230469 536.15018555 -180.85230469 536.15018555 -181.9609375 537.25585938 C-183.09789062 538.37444336 -183.09789062 538.37444336 -184.2578125 539.515625 C-185.35996094 540.61680664 -185.35996094 540.61680664 -186.484375 541.74023438 C-190.60497817 545.82819192 -194.83113065 549.72293905 -199.22607422 553.51245117 C-202.33606951 556.27003342 -205.22637986 559.23422379 -208.1328125 562.203125 C-212.27544998 566.39383106 -216.44221177 570.43003128 -220.9453125 574.234375 C-224.13102018 577.10151192 -227.11865795 580.15744576 -230.1328125 583.203125 C-237.41385539 590.56023991 -237.41385539 590.56023991 -241.0703125 593.640625 C-243.75778268 595.95761092 -246.33367581 598.33989093 -248.84375 600.84765625 C-249.85320679 601.85517944 -249.85320679 601.85517944 -250.88305664 602.88305664 C-253.44037675 605.45006472 -255.99453952 608.02011896 -258.54223633 610.59667969 C-260.06749613 612.13715697 -261.59862587 613.6715431 -263.1328125 615.203125 C-267.27918531 613.66495444 -269.42711452 610.67817715 -272.0078125 607.265625 C-272.47977051 606.65082275 -272.95172852 606.03602051 -273.43798828 605.40258789 C-274.46689884 604.05587163 -275.4912877 602.70569171 -276.51171875 601.35253906 C-277.60312736 599.90543644 -278.69958989 598.46213324 -279.80078125 597.02246094 C-300.20572398 570.32560509 -316.25348657 541.20373772 -329.1328125 510.203125 C-329.47538086 509.38650391 -329.81794922 508.56988281 -330.17089844 507.72851562 C-338.84547775 486.89887072 -344.40921425 465.22370893 -349.1328125 443.203125 C-349.29765137 442.45546875 -349.46249023 441.7078125 -349.63232422 440.9375 C-354.66732474 417.92035477 -355.68691327 394.43419894 -355.5703125 370.953125 C-355.56760345 369.66529114 -355.56489441 368.37745728 -355.56210327 367.05059814 C-355.50067893 347.7615602 -354.72245691 329.18028155 -351.1328125 310.203125 C-350.74319849 307.97270708 -350.35387649 305.74223813 -349.96484375 303.51171875 C-347.73274386 291.22193195 -344.63802382 279.34735445 -340.83398438 267.45849609 C-340.17455461 265.33739159 -339.57088041 263.2107621 -338.9921875 261.06640625 C-325.6710359 211.97538604 -297.70865686 164.23915398 -263.46875 126.78515625 C-262.1852119 125.36639591 -260.90812586 123.94132628 -259.66210938 122.48950195 C-254.65353986 116.65916802 -249.31442544 111.20115685 -243.8828125 105.765625 C-243.00496094 104.87552734 -242.12710938 103.98542969 -241.22265625 103.06835938 C-235.17326668 97.00568417 -228.82774532 91.53647505 -222.1328125 86.203125 C-220.83911974 85.13030284 -219.54836787 84.05391588 -218.26171875 82.97265625 C-201.36830285 68.90492922 -183.29882529 56.94504663 -164.1328125 46.203125 C-163.27606934 45.72246582 -162.41932617 45.24180664 -161.53662109 44.74658203 C-130.77643984 27.67199972 -97.48318268 15.60218684 -63.1328125 8.203125 C-62.0392041 7.955625 -60.9455957 7.708125 -59.81884766 7.453125 C-51.38184013 5.57219572 -42.95035785 4.2090048 -34.3828125 3.078125 C-32.52849609 2.82482422 -32.52849609 2.82482422 -30.63671875 2.56640625 C-20.40169515 1.18505875 -10.33413852 0.0518634 0 0 Z " fill="#D4FB35" transform="translate(497.1328125,136.796875)"/>
<path d="M0 0 C30.09563724 37.01494669 49.83977529 83.44857902 59 130 C59.18546387 130.92006836 59.37092773 131.84013672 59.56201172 132.78808594 C74.86127106 210.20634674 58.69483306 294.66955543 15.125 360.625 C-2.67838027 386.99685206 -23.84797606 412.34568621 -49 432 C-50.16357244 432.95054295 -51.32489584 433.90384331 -52.484375 434.859375 C-60.97661349 441.8267363 -69.72046082 448.12656047 -79 454 C-79.7105957 454.45262207 -80.42119141 454.90524414 -81.15332031 455.37158203 C-91.46655277 461.91052377 -101.90883931 467.88390074 -113 473 C-113.76054688 473.35271973 -114.52109375 473.70543945 -115.3046875 474.06884766 C-137.99095924 484.47131085 -161.61829973 491.79140254 -186 497 C-186.77939941 497.16725586 -187.55879883 497.33451172 -188.36181641 497.50683594 C-207.65224279 501.56659981 -226.58450811 502.40720305 -246.25 502.375 C-248.11750412 502.37418427 -248.11750412 502.37418427 -250.0227356 502.37335205 C-268.34315384 502.3365105 -286.02591033 501.82662894 -304 498 C-305.04349609 497.78569336 -306.08699219 497.57138672 -307.16210938 497.35058594 C-337.44977523 490.99517163 -365.9413431 481.00106405 -393 466 C-390.90718218 463.77415725 -388.8092763 462.11728755 -386.21875 460.50390625 C-385.46899902 460.0339624 -384.71924805 459.56401855 -383.94677734 459.07983398 C-382.73562256 458.32875366 -382.73562256 458.32875366 -381.5 457.5625 C-379.77339258 456.48184261 -378.04683136 455.40111138 -376.3203125 454.3203125 C-375.43633789 453.76891602 -374.55236328 453.21751953 -373.64160156 452.64941406 C-369.54478438 450.09136444 -365.45910666 447.51577976 -361.375 444.9375 C-360.59535889 444.44572266 -359.81571777 443.95394531 -359.01245117 443.44726562 C-352.90639193 439.58907272 -346.83413736 435.68028534 -340.78076172 431.73999023 C-339.50023002 430.90721148 -338.21788882 430.07720729 -336.93359375 429.25024414 C-335.57032848 428.36876921 -334.21416648 427.47626063 -332.86328125 426.57592773 C-331.81140625 425.88865601 -331.81140625 425.88865601 -330.73828125 425.1875 C-329.79335815 424.56101562 -329.79335815 424.56101562 -328.8293457 423.921875 C-323.84081831 421.40797143 -317.78213102 424.34566676 -312.8125 425.8125 C-260.4504772 441.13117688 -196.94068315 437.33883269 -147.87890625 412.91210938 C-145.94730707 411.97442038 -143.99665892 411.09877329 -142.03125 410.234375 C-119.64092242 400.29816913 -99.36394522 386.21540115 -81.578125 369.42578125 C-79.33280639 367.31314056 -77.0409979 365.30219384 -74.6875 363.3125 C-70.71777163 359.85525705 -67.38329807 356.02229074 -64 352 C-63.17628906 351.06414062 -62.35257813 350.12828125 -61.50390625 349.1640625 C-35.73942627 319.73088403 -13.58197624 279.40058324 -7.875 240.4375 C-7.09796673 235.19593346 -7.09796673 235.19593346 -6 233 C-0.44031153 203.39718919 -0.50407266 170.35001989 -7 141 C-7.28883057 139.62424805 -7.28883057 139.62424805 -7.58349609 138.22070312 C-14.7331894 104.36568085 -28.7809807 73.40934334 -48.78515625 45.22265625 C-50.42954126 42.83003256 -51.82916903 40.63933083 -53 38 C-45.61443023 32.16995263 -38.10484472 26.61857696 -30.31884766 21.33447266 C-24.16383391 17.1462368 -18.13043726 12.79988482 -12.11450195 8.41479492 C-8.13165829 5.51649841 -4.12153545 2.69785049 0 0 Z " fill="#9BE130" transform="translate(761,320)"/>
<path d="M0 0 C0.85304718 -0.0040535 1.70609436 -0.00810699 2.58499146 -0.01228333 C5.32753323 -0.02166781 8.06994445 -0.02168852 10.8125 -0.01953125 C11.74414978 -0.02025635 12.67579956 -0.02098145 13.63568115 -0.02172852 C28.44529879 -0.02045383 43.08310493 0.50732331 57.8125 2.16796875 C51.48691637 9.9368228 44.23539993 16.80768508 37.11938477 23.84057617 C30.78470196 30.10780264 24.59401606 36.38040541 18.8125 43.16796875 C-0.89859224 65.95661362 -0.89859224 65.95661362 -10.50097656 67.20922852 C-13.60252534 67.32158923 -16.67773386 67.27255007 -19.77832031 67.14990234 C-24.17988154 67.18290959 -28.4003581 68.17902037 -32.6875 69.10546875 C-33.47592285 69.2648291 -34.2643457 69.42418945 -35.07666016 69.58837891 C-77.38812609 78.34155788 -115.89461331 97.58790058 -148.1875 126.16796875 C-149.51007813 127.32425781 -149.51007813 127.32425781 -150.859375 128.50390625 C-160.50930248 137.04499113 -169.21663711 146.03947573 -177.1875 156.16796875 C-178.33992188 157.57755859 -178.33992188 157.57755859 -179.515625 159.015625 C-206.67772966 192.96825583 -223.04426395 234.35984571 -229.1875 277.16796875 C-229.364021 278.35874023 -229.54054199 279.54951172 -229.72241211 280.77636719 C-230.36381014 286.01176761 -230.36869339 291.2392113 -230.390625 296.5078125 C-230.39632507 297.58817276 -230.40202515 298.66853302 -230.40789795 299.78163147 C-230.4173108 302.0634769 -230.42386709 304.3453357 -230.42773438 306.62719727 C-230.43738235 310.06356549 -230.46841839 313.49932012 -230.5 316.93554688 C-230.55991224 329.38792761 -229.88525611 341.01192726 -227.1875 353.16796875 C-226.84984791 354.97919184 -226.51809968 356.79153753 -226.1953125 358.60546875 C-223.66962288 371.85096484 -220.61761952 384.7809235 -215.1875 397.16796875 C-214.55202344 398.76665832 -213.92081128 400.36704698 -213.29296875 401.96875 C-204.18039725 424.8387552 -191.79579828 446.11175659 -176.1875 465.16796875 C-177.6074255 468.39845623 -179.32369387 470.55039363 -181.8203125 473.03125 C-182.90699219 474.1150293 -182.90699219 474.1150293 -184.015625 475.22070312 C-185.15257812 476.33928711 -185.15257812 476.33928711 -186.3125 477.48046875 C-187.41464844 478.58165039 -187.41464844 478.58165039 -188.5390625 479.70507812 C-192.65780763 483.79119236 -196.88285661 487.68146479 -201.27636719 491.46850586 C-205.03809297 494.81359696 -208.49401895 498.47180505 -211.98632812 502.09375 C-215.78984506 505.9700001 -219.6839991 509.12738853 -224.1875 512.16796875 C-236.96826319 498.96246721 -246.7289704 483.21847887 -255.88867188 467.38964844 C-257.00745036 465.4759484 -258.15509134 463.58769803 -259.328125 461.70703125 C-266.32630531 450.18563684 -271.14902772 437.63394617 -276.1875 425.16796875 C-276.53200195 424.33668457 -276.87650391 423.50540039 -277.23144531 422.64892578 C-285.72088392 402.0920391 -291.15722835 379.18313282 -294.1875 357.16796875 C-294.31995117 356.28737793 -294.45240234 355.40678711 -294.58886719 354.49951172 C-296.61665266 340.83132625 -297.46285945 327.34137221 -297.4375 313.54296875 C-297.43633682 312.4924382 -297.43633682 312.4924382 -297.43515015 311.42068481 C-297.28131541 263.62022726 -286.98514607 214.69662914 -264.33886719 172.32617188 C-263.51107178 170.77449431 -262.69249553 169.21788548 -261.87988281 167.65820312 C-241.42947013 128.40821135 -212.39426861 92.25293321 -176.95410156 65.50195312 C-175.78299046 64.61763153 -174.61560795 63.72834886 -173.45214844 62.83398438 C-128.16945143 28.0402127 -74.58710287 8.17355189 -18.1875 1.16796875 C-17.51187012 1.08094193 -16.83624023 0.9939151 -16.14013672 0.9042511 C-10.7428347 0.24772641 -5.43440568 0.00817801 0 0 Z " fill="#BFE130" transform="translate(499.1875,198.83203125)"/>
<path d="M0 0 C1.10373459 0.27478683 2.20746918 0.54957367 3.34465027 0.83268738 C4.35140808 1.072453 5.35816589 1.31221863 6.39543152 1.55924988 C7.47179871 1.85573425 8.54816589 2.15221863 9.65715027 2.45768738 C10.96829086 2.81597013 12.279494 3.17402407 13.59074402 3.53190613 C14.3292157 3.73477234 15.06768738 3.93763855 15.82853699 4.14665222 C18.71777064 4.93442115 21.61099254 5.70644671 24.50480652 6.47721863 C43.89118746 11.64920365 43.89118746 11.64920365 53.15715027 14.45768738 C60.31251031 16.62389186 67.54666383 18.3414649 74.82804871 20.02848816 C80.62419526 21.3841934 86.27433192 22.98557723 91.94230652 24.80924988 C96.20948609 26.09283317 100.51649734 27.15149351 104.84465027 28.20768738 C111.89381271 29.92970184 118.8777525 31.80348128 125.84465027 33.83268738 C132.64689458 35.81227622 139.46225564 37.65273278 146.34465027 39.33268738 C154.10997481 41.2281603 161.78415185 43.35982047 169.4584198 45.59342957 C176.49471713 47.62634223 183.57127373 49.44911654 190.68644714 51.18424988 C195.27242163 52.30296713 199.81478651 53.50392734 204.34465027 54.83268738 C204.34465027 55.49268738 204.34465027 56.15268738 204.34465027 56.83268738 C202.88615417 58.04679871 202.88615417 58.04679871 200.82121277 59.41471863 C199.67471252 60.18416809 199.67471252 60.18416809 198.50505066 60.96916199 C197.25002747 61.79879456 197.25002747 61.79879456 195.96965027 62.64518738 C194.20920369 63.82810331 192.45011985 65.01304947 190.69230652 66.19987488 C189.79528015 66.80541199 188.89825378 67.4109491 187.9740448 68.03483582 C184.06515262 70.70754538 180.23295321 73.4803786 176.40715027 76.27018738 C169.17315847 81.534615 161.86876876 86.68967139 154.53117371 91.80851746 C149.1603313 95.55689605 143.81338307 99.3355298 138.49113464 103.1525116 C134.04257313 106.34099341 129.57064992 109.49537209 125.09465027 112.64518738 C119.20846382 116.78933945 113.35915804 120.98078937 107.53215027 125.20768738 C98.67501014 131.62855962 89.71484183 137.89697978 80.74357605 144.15690613 C71.26044078 150.78139631 61.82809474 157.47069257 52.46965027 164.27018738 C46.29291432 168.75797209 40.04119792 173.11408666 33.71965027 177.39518738 C27.06347949 181.9049916 20.58551392 186.58866208 14.18742371 191.45622253 C9.05936587 195.34130879 3.8059945 199.00437839 -1.51545715 202.61833191 C-6.62899306 206.10033824 -11.65256224 209.69366467 -16.65534973 213.33268738 C-22.26917741 217.41400119 -27.91945512 221.42473877 -33.65534973 225.33268738 C-40.14205887 229.75423355 -46.5187086 234.31332544 -52.87190247 238.92424011 C-60.05087374 244.13151667 -67.2920736 249.24734852 -74.54646301 254.34880066 C-78.08576122 256.83917511 -81.62035786 259.33620585 -85.15534973 261.83268738 C-89.3913442 264.82423087 -93.62821582 267.81447566 -97.87019348 270.79753113 C-105.04246826 275.84487205 -112.18385569 280.9292716 -119.28034973 286.08268738 C-127.14859029 291.7934932 -135.12124895 297.34587872 -143.11335754 302.8815155 C-149.87396945 307.5721838 -156.56942399 312.34319969 -163.22737122 317.17814636 C-170.27046045 322.29079572 -177.37895424 327.30772018 -184.49812317 332.31364441 C-186.76385256 333.90909125 -189.02637742 335.50899776 -191.28816223 337.11003113 C-192.05056213 337.64942322 -192.81296204 338.18881531 -193.59846497 338.74455261 C-195.04887822 339.77087027 -196.49893585 340.79769079 -197.94856262 341.82511902 C-201.81204724 344.55658519 -205.70523808 347.22794812 -209.65534973 349.83268738 C-199.40087262 352.7076506 -189.1307225 355.51700932 -178.84284973 358.27018738 C-171.11056519 360.33957817 -163.40168679 362.46550071 -155.71784973 364.70768738 C-145.57035008 367.65837164 -135.33604083 370.25122207 -125.09629822 372.85801697 C-114.7728787 375.4880222 -104.49711319 378.23539358 -94.25300598 381.16178894 C-83.54618689 384.19538768 -72.76061164 386.92074038 -61.96980286 389.63737488 C-54.40202759 391.55160399 -46.9323166 393.62300475 -39.48347473 395.96867371 C-35.7822173 397.09943597 -32.05802757 398.00088772 -28.28034973 398.83268738 C-20.34851857 400.63724049 -12.50128439 402.68561938 -4.65534973 404.83268738 C-4.65534973 405.16268738 -4.65534973 405.49268738 -4.65534973 405.83268738 C-15.6461936 406.23643266 -26.21942665 404.62161101 -36.95613098 402.39128113 C-46.93858562 400.32544753 -56.96151821 398.60136327 -67.03034973 397.02018738 C-80.87011404 394.84470603 -94.66122455 392.40668003 -108.45091248 389.93673706 C-112.09770244 389.28410528 -115.74613446 388.64312457 -119.39753723 388.01676941 C-120.1770575 387.8821077 -120.95657776 387.74744598 -121.75971985 387.60870361 C-123.26424038 387.34915048 -124.7691912 387.09207609 -126.27461243 386.83779907 C-131.43129804 385.94471322 -131.43129804 385.94471322 -133.65534973 384.83268738 C-136.15539206 384.46570869 -138.64731199 384.13271432 -141.15534973 383.83268738 C-148.38507946 382.96782251 -148.38507946 382.96782251 -150.65534973 381.83268738 C-153.15539206 381.46570869 -155.64731199 381.13271432 -158.15534973 380.83268738 C-165.38507946 379.96782251 -165.38507946 379.96782251 -167.65534973 378.83268738 C-169.3405821 378.520011 -171.03375172 378.24961428 -172.72956848 378.00065613 C-173.77797913 377.84403503 -174.82638977 377.68741394 -175.90657043 377.52604675 C-177.60752869 377.27564636 -177.60752869 377.27564636 -179.34284973 377.02018738 C-200.3131906 373.86140233 -221.20807264 370.21470487 -241.98347473 365.94987488 C-242.97794617 365.74588074 -242.97794617 365.74588074 -243.99250793 365.5377655 C-244.62374573 365.40821472 -245.25498352 365.27866394 -245.90534973 365.14518738 C-249.93109933 364.32324509 -253.87670383 363.64623565 -257.96784973 363.27018738 C-261.65534973 362.83268738 -261.65534973 362.83268738 -263.65534973 360.83268738 C-256.88088707 355.05634304 -250.0881455 349.32299872 -243.11238098 343.78971863 C-238.58750092 340.18564087 -234.1274187 336.50191648 -229.65534973 332.83268738 C-227.82224812 331.33240421 -225.98891546 329.8324033 -224.15534973 328.33268738 C-223.24784973 327.59018738 -222.34034973 326.84768738 -221.40534973 326.08268738 C-218.65534973 323.83268738 -215.90534973 321.58268738 -213.15534973 319.33268738 C-212.24011536 318.58374207 -211.32488098 317.83479675 -210.38191223 317.06315613 C-208.62717189 315.62768802 -206.87199818 314.19274942 -205.11628723 312.75846863 C-200.96059665 309.36235291 -196.80894449 305.96212495 -192.67488098 302.53971863 C-185.99818223 297.01682902 -179.31230488 291.52197689 -172.46784973 286.20768738 C-167.13733975 282.06688102 -162.00347225 277.73903724 -156.90681458 273.31486511 C-152.328638 269.36028761 -147.61466964 265.6137766 -142.83503723 261.90690613 C-138.85664771 258.80963643 -134.9841245 255.61266722 -131.15534973 252.33268738 C-126.76180095 248.56888504 -122.28929527 244.9406623 -117.71784973 241.39518738 C-112.20877329 237.11913125 -106.89036746 232.66137931 -101.61775208 228.09806824 C-97.6397672 224.65989691 -93.59052116 221.33803213 -89.46394348 218.07878113 C-85.741938 215.10221207 -82.07666216 212.05890693 -78.40534973 209.02018738 C-73.14956202 204.67287868 -67.85601601 200.38971922 -62.46784973 196.20768738 C-57.13726041 192.06698887 -52.00346619 187.73903198 -46.90681458 183.31486511 C-42.328638 179.36028761 -37.61466964 175.6137766 -32.83503723 171.90690613 C-28.85664771 168.80963643 -24.9841245 165.61266722 -21.15534973 162.33268738 C-16.76180095 158.56888504 -12.28929527 154.9406623 -7.71784973 151.39518738 C-2.21331717 147.12265814 3.10140257 142.66933633 8.36906433 138.10905457 C12.47771382 134.55719552 16.66239218 131.12388495 20.92277527 127.75456238 C25.44126768 124.16892002 29.88533735 120.49145044 34.34465027 116.83268738 C36.17775188 115.33240421 38.01108454 113.8324033 39.84465027 112.33268738 C40.75215027 111.59018738 41.65965027 110.84768738 42.59465027 110.08268738 C61.84465027 94.33268738 61.84465027 94.33268738 64.58683777 92.09049988 C66.44806555 90.56671849 68.30739857 89.04062022 70.16496277 87.51237488 C75.26206767 83.32394606 80.39352155 79.21049423 85.66496277 75.24284363 C87.46660952 73.91999663 87.46660952 73.91999663 88.34465027 71.83268738 C87.70942947 71.84587509 87.07420868 71.85906281 86.41973877 71.87265015 C78.76998977 71.96008591 71.26534756 71.41305765 63.65324402 70.69596863 C62.32461247 70.57460416 60.99593677 70.45372213 59.66722107 70.33328247 C56.84063467 70.07620802 54.01433919 69.81621547 51.18824768 69.55375671 C44.45041284 68.92804949 37.71135334 68.31574417 30.97239113 67.7023201 C28.6638376 67.49202948 26.35534095 67.28112163 24.04684448 67.07020569 C13.87292718 66.14247878 3.69629464 65.25229342 -6.48347473 64.39128113 C-7.81741428 64.27815858 -9.15135289 64.16502495 -10.48529053 64.05187988 C-15.53449465 63.6243432 -20.58374638 63.19757898 -25.63365173 62.77839661 C-50.14768938 60.74260772 -50.14768938 60.74260772 -61.65534973 58.83268738 C-60.99534973 58.50268738 -60.33534973 58.17268738 -59.65534973 57.83268738 C-59.65534973 57.17268738 -59.65534973 56.51268738 -59.65534973 55.83268738 C-58.99534973 55.83268738 -58.33534973 55.83268738 -57.65534973 55.83268738 C-57.4261937 55.28083267 -57.19703766 54.72897797 -56.9609375 54.16040039 C-55.28103187 51.16532163 -53.16895044 49.04495655 -50.76594543 46.58927917 C-50.26971176 46.07990311 -49.77347809 45.57052704 -49.26220703 45.04571533 C-47.62437481 43.36858247 -45.97870529 41.69946689 -44.33113098 40.03190613 C-43.76800894 39.46063303 -43.20488689 38.88935993 -42.62470055 38.30077553 C-39.64651093 35.28094612 -36.66186904 32.26765953 -33.67219543 29.25920105 C-30.58601409 26.15083965 -27.52389528 23.01984255 -24.46651936 19.88318157 C-22.10944707 17.47385887 -19.73481213 15.08244221 -17.35507774 12.6955204 C-16.21803473 11.54873265 -15.08776023 10.39519239 -13.96451759 9.23488426 C-12.39183401 7.61355602 -10.79581832 6.01929918 -9.19172668 4.42912292 C-8.28952896 3.51519272 -7.38733124 2.60126251 -6.45779419 1.65963745 C-3.65534973 -0.16731262 -3.65534973 -0.16731262 0 0 Z " fill="#DCDCDC" transform="translate(705.6553497314453,110.16731262207031)"/>
<path d="M0 0 C0.66 0.33 1.32 0.66 2 1 C0.55609075 4.80666984 -1.34952803 6.26602582 -5 8 C-5.66 7.67 -6.32 7.34 -7 7 C-4.69 4.69 -2.38 2.38 0 0 Z " fill="#DDDDDF" transform="translate(178,857)"/>
<path d="M0 0 C4.95 0.99 4.95 0.99 10 2 C10 2.33 10 2.66 10 3 C7.03 3 4.06 3 1 3 C0.67 2.01 0.34 1.02 0 0 Z " fill="#BBBCBE" transform="translate(691,513)"/>
</svg>
